<svg xmlns="http://www.w3.org/2000/svg" enable-background="new 0 0 50 50" viewBox="0 0 50 50"><path fill="#D1793A" d="M44.6,34.1c-2.5,4.5-3.9,5.2-8.4,5.2c-22.3,0.2-23.2,0.5-25.9-0.5c-2.1-0.8-3.9-2.6-4-4.8
		C6.3,30,44.6,30.1,44.6,34.1z"/><path d="M44.6,34.7c-3.2,1.7-9.4,1.5-10.5,0.7c-3.9,2-10.2,2-10.2-0.7c-1.1,1-2.1,2-3.5,2.5c-1.3,0.5-3,0.5-4.1-0.4
		c-2.6-2.2-0.6-2.4-8.4-0.7c-1.8-0.5-2.4-2.8-1.1-4.1c1.6-1.7,19.3-6.7,37.8,0.1" opacity=".1"/><path fill="#FBF8EF" d="M14.5,33.9c1,0,1.9,0.6,2.4,1.4c0.3,0.4,0.4,0.9,0.7,1.3c1,1.5,1.7,0.5,6.2-3c0,0,0.3-1.8,0.3-2
		c0-0.2,0.2-0.5-0.4-0.9c-0.6-0.4-0.4-0.9-2.1-1c-2.1-0.1-2.9-0.6-6.3,0.8c-1.7,0.7-1.8,0.2-2.1,0.9c-0.3,0.7-0.1,1.4,0.1,1.6
		C13.5,33.1,14.5,33.9,14.5,33.9z"/><path fill="#AC1F23" d="M5.2 31.6c-1.1.7-2.1 1.7-2.7 2.8 0 .1-.1.2 0 .2.1.1 1.3.5 2.1.3.5-.1.9-.4 1.3-.6.4-.2 1-.3 1.4 0 .4.3.6.9 1.1.8.3 0 .5-.3.8-.2.2 0 .3.3.5.4.3.2.7-.1 1-.3 2.6-1.8 3.9.4 4.6-2.6L15 31l-.5-.6M44.5 31c1.2.8 2.3 1.5 3.5 2.3.4.2.8.5.8.9.1.6-.5 1-1.1 1-1.2 0-2.1-1.3-3.3-1-1.3.3-1.1 1.9-6.9-.4-.6.4-.7 1.3-1.2 1.7-1 .8-2.3-.4-2.1-1.4-1.8 1.2-4.5 3.9-9.5.1-1.3-1-3.2-3-5.3-2.4l-.2-1.1c.3-.7.4-.5 2.5-1.1"/><path fill="#FBF8EF" d="M39.8,31.3c0.6,1.1,3,0,3.1,2.2c0,0.6-0.4,1.2-0.9,1.4l-2.1-0.2c0.2-0.6-0.1-1.2-0.5-1.6
			c-1-0.8-2.3-0.5-3.5-0.8c-0.8-0.2-0.9-0.7-0.7-0.9L39.8,31.3z"/><path fill="#69241B" d="M46.5,27.9c0.7,1.1-0.1,2.7-1.3,3.2c-1.2,0.5-2.6,0.3-3.9,0.2c-5.1-0.4-10.3,1.1-15.4,0.5
		c-1.9-0.2-3.9-0.7-5.7-0.3c-1.3,0.3-2.6,1-3.9,0.9c-0.8-0.1-1.5-0.4-2.3-0.6c-1.5-0.3-3,0-4.4,0.1c-1.6,0.1-3.3-0.1-4.9-0.3
		c-4.2-0.6-5.2-3.2,0.2-6.9c1.8-1.2,5.9-3.1,6.7-3.1s2.5-1.1,3-1.3c0.5-0.2,0.1-0.8,4.1-0.7c10.9,0.3,3.6,0.1,15.4,2
		c1.5,0.2,3.7,1.4,4.4,1.5c0.7,0.1,1.6,0.2,1.7,0.2c0.2,0,3.1,0.9,3.1,0.9c1.2,0.8,1.8,0.5,2.7,1.5"/><path d="M7.2,31.8c1.1-1.3,1.3-3.3,0.5-4.9l-2.3-0.1c-1.1,1.3-1.4,3.3-0.6,4.9L7.2,31.8z" opacity=".2"/><path d="M4.8 31.7c-.1.1-.9-1-.7-2.6.2-1.5 1.2-2.4 1.3-2.3.1.1-.6 1-.8 2.4C4.4 30.6 4.9 31.6 4.8 31.7zM7.2 31.8c-.1-.1.6-1 .7-2.4C8 28.1 7.5 27 7.7 27c.1-.1.9 1 .7 2.5C8.3 31 7.2 31.9 7.2 31.8z"/><path d="M20.2,27.8c-1.2,2.8-5,3.1-6.6,0.5c-0.9-1.5-0.9-2.7-3.6-1.6c-1.5,0.6-5.3,1.8-6.6,1c-0.5-0.3-0.8-1-0.5-1.6
		c0,0,0.1-0.1,0.4-0.4s-1.1-0.1,1.5-1.1c5.3-2.1,7-1.4,9.9-1c1,0.1,0.6-0.3,2,0.3s1.3,0.1,2,0.9" opacity=".1"/><path d="M46.5,27.9c0.3,0.3,0.5,1.1,0.1,2c-0.9,1.9-3.2,1.7-5.2,1.6c-4.2-0.3-8.9,0.8-13.3,0.7c-2.4,0-3.7-0.4-5.3-0.5
			c-4-0.3-4.9,1.8-7.7,0.8c-3.5-1.2-3.4,0.5-10.7-0.7c-5.1-0.9-3.1-4.4-1.5-5.4c0.1,0-0.5,0.5-1.2,1.7c-1.6,3.2,3,3.7,6.6,3.8
			c2.5,0.1,4-0.8,6.9,0.2c2,0.7,3-0.2,4.9-0.7c0.9-0.2,1.8-0.2,2.8-0.1c3.3,0.3,4,0.8,10.2,0.2c3.1-0.3,6-0.5,8.4-0.3
			c1.2,0.1,2.3,0.2,3.2,0c1.5-0.3,2.4-1.7,2.1-2.7C46.6,28,46.5,27.9,46.5,27.9z"/><path d="M41.1,31.2c0.8-1.5,0.5-3.7-0.7-5l-2.3,0.4c-0.8,1.5-0.5,3.4,0.6,4.6L41.1,31.2z" opacity=".2"/><path d="M38.7 31.3c-.1.1-1.1-.7-1.3-2.2-.2-1.4.5-2.5.7-2.4.1.1-.3 1.1-.2 2.4C38.1 30.3 38.8 31.2 38.7 31.3zM41.1 31.2c-.1-.1.3-1.2.1-2.6-.2-1.4-.9-2.3-.8-2.4 0 0 .3.1.6.5.7 1 .9 2.6.5 3.8C41.3 31 41.1 31.3 41.1 31.2z"/><path d="M32.7,26.1c0.4,0.7,0.8,1.4,1.3,2c2,2.1,5.5,1.6,6.9-1c0.1-0.3,0.2-0.5,0.4-0.7c0.4-0.6,1-0.6,1.5,0
		c0.2,0.2,0.3,0.5,0.5,0.8c0.7,1.2,2.2,1.9,3.5,1.7c1-2.1-3.4-4.9-5-4.8" opacity=".1"/><path fill="#AC1F23" d="M40.9,23.9l1.6-0.9c1.5,0.5,2.3,2.2,3.8,2.6c0.5,0.1,1,0.1,1.4,0.5c1.4,1.1-0.7,3.4-2.3,2
		c-0.4-0.3-0.6-0.8-0.9-1.2c-0.9-1.3-2.8-2.3-4.8-1.2L40.9,23.9"/><path d="M42.4,23c0,0,0.3,0,0.7,0.2c0.8,0.4,1.7,1.5,2.6,1.9c1,0.6,2.5,0.2,2.7,1.7c0.1,1.4-1.7,2.5-3,1.6c-1-0.6-1.1-2.3-3.2-2.9
			c-1.2-0.3-2.5,0.2-2.5,0.2c-0.1-0.1,1.2-0.8,2.6-0.5c0.8,0.2,1.8,0.7,2.4,1.6c0.3,0.5,0.6,1,1,1.2c0.9,0.7,2.3-0.2,2.2-1.1
			c-0.1-1.1-1.5-0.7-2.4-1.4c-1-0.6-1.5-1.5-2.4-2.1C42.7,23.1,42.4,23,42.4,23z"/><path d="M15.2,32.2c1.3-1.2,1.7-3.2,1.1-4.8L14,27c-1.3,1.2-1.8,3.1-1.2,4.8L15.2,32.2z" opacity=".2"/><path d="M12.8 31.8c-.1.1-.8-1.1-.4-2.6.4-1.5 1.5-2.3 1.5-2.1.1.1-.7.9-1 2.3C12.6 30.6 13 31.7 12.8 31.8zM15.2 32.2c-.1-.1.7-.9 1-2.3.3-1.3-.1-2.4.1-2.5.1-.1.8 1.1.4 2.6C16.3 31.5 15.2 32.3 15.2 32.2z"/><path d="M29.7,31.7c0.8-1.5,0.6-3.4-0.5-4.7L27,27.3c-0.8,1.5-0.7,3.4,0.4,4.7L29.7,31.7z" opacity=".2"/><path d="M27.4 32.1c-.1.1-1-.8-1.2-2.3-.1-1.5.7-2.6.8-2.5.1.1-.4 1.1-.2 2.4C26.9 31.1 27.5 32 27.4 32.1zM29.7 31.7c-.1-.1.3-1.1.2-2.4-.1-1.3-.8-2.2-.7-2.3.1-.1 1.1.8 1.2 2.3C30.6 30.8 29.8 31.8 29.7 31.7z"/><path d="M20,27.5c0.1,1.3,1.6,1.6,2.9,1.6c3.8,0,7.8-0.7,10.3-3.7" opacity=".1"/><path fill="#AC1F23" d="M5.8 22.6c-.2-.2-.6-.3-1 .4-.4.6-.5.5-1.1.7-1.8.6-1.8 4.4 4.5 3.1 1.2-.3 2.3-.7 3.4-1.4.5-1 0-.6 0-1.4 0-.8 0-1.1-.8-1.7-.4-.3-.9-.4-1-.5M32.6 25.3c-.9.8-2.1 1.1-3.3 1.4-2.7.7-6.8 2.5-9.2.6 0 0-.1-.2-.2-.5-.1-.2-.1-1.9 0-2.2.4-1.5.2-1 1.4-1.6"/><path fill="#FBF8EF" d="M41.6,23.3c0.9,0.2,1.3,0.8,0.5,1.2c-2.1,0.9-3.4,6.2-6.8,3.1c-0.5-0.5-1-1.1-1.6-1.5
		c-1.9-1.4-7-1.5-8.5-1.3c-5.4,0.6-5.7,5.5-8.9,4.6c-1.4-0.4-2-2-3.1-3c-0.5-0.5-1.2-0.8-1.7-1.4c-0.5-0.5-0.7-1.4-0.2-2
		c0,0,1.3-1.6,1.3-1.7c-0.1-0.1,0.1-0.8,1.5-1.4c1.5-0.5,2.9-1.2,4.9-1.2c6.6,0.2,14.7-2.1,20.8,0.1c1.7,0.6,5.1,1,2.4,4.2l-0.5,0.3
		"/><path fill="#AC1F23" d="M12.4 22.6c-.2 1.4 2.5 2.5 3.5 2.3.5-.1 1-.5 1.5-.8.9-.6 2-1 3-1.2-.4-1.2-.3-.9-2.8-2.1-3.7-.1-3.6-.1-5 .7L12.4 22.6zM41.9 23.3c-.6.9-1.9.5-2.6 1.1-.3.3-.5.7-.9.9-.8.3-1.3-.4-2-.8-.5-.3-1.2-.4-1.8-.2-.9.3-.9.4-1.9-.1-2.1-1-4.5-1.5-6.8-1.3 0 0-.2-.9 0-1.2s2.3-1.2 3.1-1.4"/><path fill="#D1793A" d="M43.3,23.5c-3.4-0.3-6.7-0.7-10.1-1c-7.8-0.8-8.3,1.1-11.9,0.6c-1.4-0.2-2.8-0.8-4.2-1
			c-3.8-0.4-7.7,2.5-11.3,0.5c0.8-8.5,10.4-11.8,19.4-12.2C43.1,9.7,44.7,20.8,43.3,23.5z"/><path d="M43.3,23C46,8,11.6,6.3,6.4,20.8c-0.4,1.2-0.5,1.9-0.6,1.9c-0.1,0-0.1-0.7,0.2-2c1.3-5,6.7-10.4,19.7-10.7
				c15.6-0.5,19.5,8.7,17.8,13.1C43.3,23.7,43.2,23.7,43.3,23z"/><path d="M37.7,23.4c-3.4-0.1-8.2-1.1-13.2,0.1c-0.7,0.1-1.3,0.2-2,0.2c-2.5,0-3.7-0.8-5.4-1.1c-3.3-0.4-6.9,1.7-10,0.7
				c-1-0.3-1.4-0.7-1.3-0.7c0-0.1,0.5,0.2,1.4,0.3c3.2,0.6,6.6-1.7,10-1.3c2.3,0.3,3.9,1.5,7.1,0.8c4.9-1.1,7.4-0.6,13.5,0.2
				C45.2,23.6,45.1,23.9,37.7,23.4z"/><path d="M11.5 25.4c0 0-.6.6-1.9 1.1-1.2.5-3.1.9-5.2.6-2.7-.5-2.8-3.1-.3-3.7.3-.1.7-.8 1.1-1 .2-.1.4 0 .5 0 .1.1.1.1.1.1 0 0-.2-.2-.5 0-.5.3-.4.9-1.1 1.2-.7.2-1.3.5-1.3 1.3-.1 2.2 4.6 1.8 6.7 1.1C10.8 25.8 11.5 25.4 11.5 25.4zM32.6 25.3c.1 0-.4.7-1.6 1.1-.6.2-1.3.4-2 .7-1.9.6-5 1.8-7.2 1.2-1.2-.3-1.8-.9-1.7-.9.1-.1.6.4 1.8.6 2 .3 4.8-.7 7-1.3.8-.2 1.5-.4 2-.5C32 25.8 32.6 25.3 32.6 25.3z"/><path d="M41.6,23.3c0,0,0.1,0,0.4,0c0.6,0.2,0.7,0.7,0.4,1c-0.8,0.5-0.6,0.1-1.5,1.1c-0.9,1-1.5,2.4-2.7,2.9c-2,1-3.5-1-4.5-1.9
			c-1.6-1.4-4.9-1.5-7.5-1.5c-1.4,0-2.8,0.2-3.9,0.8c-1.2,0.6-1.9,1.6-2.8,2.5c-2.3,2.2-3.9,1.8-5.7-0.5c-0.8-1.1-0.8-1.1-1.7-1.8
			c-0.9-0.6-1.9-1.6-1.4-2.6c0.1-0.3,0.2-0.4,0.3-0.3c0,0-0.4,0.6,0,1.5c0.4,0.8,1.7,1.3,2.3,2c0.3,0.3,0.6,0.7,0.8,1
			c1.5,1.8,2.8,2.6,5.1,0.3c0.8-0.8,1.6-2,2.9-2.6c2.2-1.1,5.8-0.9,8.2-0.6c4.4,0.5,4.2,2.9,6.3,3.5c2.2,0.6,3.2-2.5,4.8-3.6
			c0.5-0.4,1.2-0.3,0.8-0.9c-0.1-0.1-0.2-0.2-0.4-0.3C41.7,23.3,41.6,23.3,41.6,23.3z"/><path d="M20.4 22.9c0 .1-.5.2-1.3.5-.4.2-.8.4-1.3.7-.5.3-.9.7-1.7 1-.8.2-1.4-.1-2-.3-.8-.3-1.8-1-1.8-1.8 0-.3.1-.4.1-.4 0 0 0 1.1 1.9 1.8.5.2 1.1.3 1.7.2.6-.2 1-.6 1.6-.9.5-.3 1-.5 1.4-.6C19.8 22.8 20.4 22.9 20.4 22.9zM41.9 23.3c0 0-.1.3-.5.5-.4.3-1.1.3-1.8.6-.7.3-.3.5-.8.9-.6.4-1.1.4-1.6 0-1-.6-1.5-1.3-2.9-.7-.7.3-1.2.1-1.9-.2-3.1-1.5-6.6-1.5-6.6-1.5 0-.2 2.6-.4 5.3.5.5.2 1 .4 1.5.6.6.3.9.4 1.5.2.6-.3 1.3-.3 1.9-.1 1.1.4 1.6 1.6 2.5.9.1-.1.2-.3.4-.5.6-.7 1.7-.5 2.4-.9C41.7 23.5 41.8 23.3 41.9 23.3z"/><path d="M41.6 23.3c0 0 .1 0 .4 0 .6.2.7.7.4 1-.8.5-.6.1-1.5 1.1-.9 1-1.5 2.4-2.7 2.9-2 1-3.5-1-4.5-1.9-1.6-1.4-4.9-1.5-7.5-1.5-1.4 0-2.8.2-3.9.8-1.2.6-1.9 1.6-2.8 2.5-2.3 2.2-3.9 1.8-5.7-.5-.8-1.1-.8-1.1-1.7-1.8-.9-.6-1.9-1.6-1.4-2.6.1-.3.2-.4.3-.3 0 0-.4.6 0 1.5.4.8 1.7 1.3 2.3 2 .3.3.6.7.8 1 1.5 1.8 2.8 2.6 5.1.3.8-.8 1.6-2 2.9-2.6 2.2-1.1 5.8-.9 8.2-.6 4.4.5 4.2 2.9 6.3 3.5 2.2.6 3.2-2.5 4.8-3.6.5-.4 1.2-.3.8-.9-.1-.1-.2-.2-.4-.3C41.7 23.3 41.6 23.3 41.6 23.3zM20.2 36.6c-.5.4-1.1 1-1.8.8-.3-.1-.5-.2-.6-.4-.7-.7-.8-1.8-1.7-2.4-.8-.6-1.5-.6-1.5-.7 0 0 .7-.2 1.7.4.5.3.9.9 1.3 1.5 1 1.9 1.2 1.2 4.8-1.4C25.3 32.3 23.5 34 20.2 36.6z"/><path d="M15.2 32.4c0 0 0 .3-.1.8-.3.9-.8 1.1-1.7 1.2-.9 0-1.8.2-2.7.9-.6.4-1 .6-1.5.1-.1-.1-.2-.2-.2-.1 0 0-.2.1-.3.1-.1.1-.4.2-.6.1-1-.3-.6-1.3-1.9-.9-1 .3-1.5 1.2-3.6.5-.7-.2-.4-.6 0-1.2.5-.6 1-1.2 1.5-1.6.6-.4 1-.6 1-.6 0 0-.3.3-.9.8-1 .9-1.8 2.3-1.7 2.2.2.1.7.2.9.2C4.9 34.8 5 34.3 6 34c.6-.2 1.2-.1 1.6.3.3.4.5.7.9.5 1.4-.6.8.8 2 0 1.1-.7 1.8-.8 3-.9.4 0 .8 0 1-.2.2-.2.4-.4.5-.7C15.1 32.7 15.2 32.4 15.2 32.4zM47.6 32.8c.3.2.6.4 1 .6.5.4.6 1 .3 1.4-.7 1.1-1.9.6-2.9 0-2.8-1.5-1.1 1.6-6.7-.1-1.1-.4-.8-.2-1.7-.6 0 0-.1.1-.2.2-.3.5-.4.9-.8 1.3-1 .9-2.4 0-2.6-1l0 0 0 0c-2.5 1.7-5.2 3.4-10.4-1.1-1.1-1-2.1-1.6-2.9-1.7-.8-.2-1.2 0-1.2-.1 1.3-.7 3.3.6 4.4 1.5 5.6 4.6 7.9 2.3 10.7.4 0 .4-.1.8 0 1.2.3.6 1.1.9 1.6.5.3-.3.5-.9.8-1.2.1-.2.2-.3.5-.5.1 0 .4.1.4.1 5.9 2.2 5.1.5 6.7.3 1.2-.1 2 .9 3 1.1.8.2 1.6-.7.8-1.3-.2-.2-2.2-1.5-2.4-1.7C43.4 30.4 45 31.3 47.6 32.8z"/><path d="M39.9 34.8c-.1 0 0-.4-.2-.9-.3-.5-1-.9-1.9-1-.9-.1-1.8-.1-2.5-.4-.3-.2-.5-.5-.4-.8.1-.2.2-.2.2-.2 0 0 0 .1 0 .2 0 .1.1.3.4.4 1 .4 3.9-.3 4.5 1.6C40.3 34.4 40 34.8 39.9 34.8zM42 34.9c0 0 .8-.7.7-1.4-.1-1.4-1.2-1.1-2.2-1.5-.5-.2-.7-.6-.6-.7.1 0 .2.2.7.3.8.2 1.5.1 2.1.6.7.8.5 1.8.1 2.2C42.4 35 42 35 42 34.9z"/><path d="M44.6,34.1c0.1,0-0.2,0.6-0.7,1.6c-0.8,1.4-1.8,2.8-3.3,3.4c-1,0.4-2.1,0.6-3.3,0.7c-1.1,0.1-19.9,0.6-24.2,0.2
			c-2.8-0.2-5.6-1.7-6.6-4.2C6.1,34.7,6.3,34,6.3,34c0,0,0.5,3,3.9,4.4c1.7,0.8,4,0.7,6.6,0.7c24.9-0.4,23.6,0.6,26.7-3.7
			C44.2,34.6,44.5,34.1,44.6,34.1z"/><path d="M40.7,38.1c-18.3-1.2-19.6,0.4-27.3,0c-1.5-0.1-2.7-0.2-3.6-0.1c-0.8,0.1-1.8,0.5-1,0.1c1.1-0.5,3.1-0.4,4.6-0.4
			c7.8,0.2,14.2-1.7,27.3,0.2C42.5,38.1,42.5,38.2,40.7,38.1z"/></svg>