<?xml version="1.0" encoding="utf-8"?>
<!-- Generator: Adobe Illustrator 25.2.1, SVG Export Plug-In . SVG Version: 6.00 Build 0)  -->
<svg version="1.1" id="Layer_1" xmlns="http://www.w3.org/2000/svg" xmlns:xlink="http://www.w3.org/1999/xlink" x="0px" y="0px"
	 viewBox="0 0 1856.41 647.54" style="enable-background:new 0 0 1856.41 647.54;" xml:space="preserve">
<style type="text/css">
	.st0{fill:#D7944B;}
	.st1{opacity:0.1;enable-background:new    ;}
	.st2{fill:#7C2D09;}
	.st3{opacity:0.2;fill:#FFFFFF;enable-background:new    ;}
	.st4{fill:url(#SVGID_1_);}
	.st5{fill:#FDB515;}
	.st6{fill:#68B345;}
	.st7{opacity:0.05;enable-background:new    ;}
	.st8{opacity:0.1;fill:#FFFFFF;enable-background:new    ;}
	.st9{fill:#FFD69B;}
	.st10{fill:#C6401D;}
	.st11{fill:url(#SVGID_2_);}
	.st12{font-family:'Garamond';}
	.st13{font-size:138px;}
</style>
<path class="st0" d="M61.12,510.73c0,50.84,41.21,92.05,92.05,92.05h552.3c50.84,0,92.05-41.21,92.05-92.05
	c0-16.95-13.74-30.68-30.68-30.68H91.81C74.86,480.05,61.12,493.79,61.12,510.73z"/>
<path class="st1" d="M705.48,595.11h-552.3c-48.75-0.08-88.94-38.24-91.53-86.93c-0.09,0.89-0.52,1.63-0.52,2.55
	c0,50.84,41.21,92.05,92.05,92.05h552.3c50.84,0,92.05-41.21,92.05-92.05c0-0.92-0.43-1.66-0.52-2.55
	C794.41,556.87,754.23,595.03,705.48,595.11z"/>
<path class="st2" d="M751.5,480.05H107.15c-25.42,0-46.03-20.61-46.03-46.03c0-25.42,20.61-46.03,46.03-46.03H751.5
	c25.42,0,46.03,20.61,46.03,46.03C797.53,459.44,776.92,480.05,751.5,480.05z"/>
<path class="st3" d="M444.67,434.02c0-25.42-20.61-46.03-46.03-46.03H107.15c-25.42,0-46.03,20.61-46.03,46.03
	c0,25.42,20.61,46.03,46.03,46.03h291.49C424.06,480.05,444.67,459.44,444.67,434.02z"/>
<path class="st1" d="M797.53,434.02c0-25.42-20.61-46.03-46.03-46.03H628.77c-25.42,0-46.03,20.61-46.03,46.03
	c0,25.42,20.61,46.03,46.03,46.03H751.5C776.92,480.05,797.53,459.44,797.53,434.02z"/>
<linearGradient id="SVGID_1_" gradientUnits="userSpaceOnUse" x1="292.9533" y1="329.42" x2="591.994" y2="30.3794" gradientTransform="matrix(1 0 0 -1 0 571.5159)">
	<stop  offset="0" style="stop-color:#000000;stop-opacity:0.1"/>
	<stop  offset="1" style="stop-color:#000000;stop-opacity:0"/>
</linearGradient>
<path class="st4" d="M751.5,480.05c25.42,0,46.03-20.61,46.03-46.03c0-25.42-20.61-46.03-46.03-46.03H107.15l92.05,92.05H751.5z"/>
<path class="st5" d="M76.47,341.97v15.34c0,16.95,13.74,30.68,30.68,30.68h153.42c107.39,0,153.42,46.03,184.1,76.71
	C475.35,434.02,490.69,388,582.74,388H751.5c16.95,0,30.68-13.74,30.68-30.68v-15.34"/>
<path class="st5" d="M766.84,372.66H61.12"/>
<path class="st6" d="M76.47,295.95v61.37c0,8.47,6.87,15.34,15.34,15.34c32.06,0,48.85-9.14,63.67-17.21
	c13.26-7.21,24.7-13.47,48.97-13.47s35.72,6.26,49,13.47c14.79,8.07,31.6,17.21,63.64,17.21s48.79-9.14,63.61-17.21
	c13.19-7.21,24.67-13.47,48.85-13.47c24.18,0,35.62,6.26,48.88,13.47c14.79,8.07,31.54,17.21,63.55,17.21s48.79-9.14,63.58-17.21
	c13.22-7.21,24.67-13.47,48.85-13.47s35.65,6.23,48.88,13.47c14.79,8.07,31.54,17.21,63.58,17.21c8.47,0,15.34-6.87,15.34-15.34
	v-61.37H76.47z"/>
<path class="st0" d="M429.32,50.48c-220.25,0-368.2,55.51-368.2,138.08v46.03c0,16.95,13.74,30.68,30.68,30.68h675.03
	c16.95,0,30.68-13.74,30.68-30.68v-46.03C797.53,105.99,649.57,50.48,429.32,50.48z"/>
<path class="st7" d="M766.84,257.6H91.81c-16.95,0-30.68-13.74-30.68-30.68v7.67c0,16.95,13.74,30.68,30.68,30.68h675.03
	c16.95,0,30.68-13.74,30.68-30.68v-7.67C797.53,243.86,783.79,257.6,766.84,257.6z"/>
<path class="st8" d="M429.32,50.48c-220.25,0-368.2,55.51-368.2,138.08v7.67c0-82.57,147.96-138.08,368.2-138.08
	s368.2,55.51,368.2,138.08v-7.67C797.53,105.99,649.57,50.48,429.32,50.48z"/>
<path class="st9" d="M398.64,173.22c-8.47,0-15.34-6.87-15.34-15.34c0-2.39,0.56-4.74,1.63-6.87l15.34-30.68
	c3.79-7.58,13.01-10.66,20.59-6.87c7.58,3.79,10.66,13.01,6.87,20.59l-15.34,30.68C409.79,169.93,404.47,173.22,398.64,173.22z"/>
<path class="st9" d="M275.91,157.87c-8.47,0-15.34-6.87-15.34-15.34c0-5.81,3.28-11.11,8.47-13.71l30.68-15.34
	c7.58-3.79,16.8-0.71,20.59,6.87c3.79,7.58,0.71,16.8-6.87,20.59l-30.68,15.34C280.62,157.33,278.28,157.88,275.91,157.87z"/>
<path class="st9" d="M183.86,203.9c-8.47,0-15.34-6.87-15.34-15.34c0-2.39,0.56-4.74,1.63-6.87L185.48,151
	c3.79-7.58,13.01-10.66,20.59-6.87c7.58,3.79,10.66,13.01,6.87,20.59L197.6,195.4C195.01,200.61,189.68,203.9,183.86,203.9z"/>
<path class="st9" d="M674.79,203.9c-5.81,0-11.11-3.28-13.72-8.47l-15.34-30.68c-3.86-7.55-0.86-16.79,6.68-20.64
	c7.55-3.86,16.79-0.86,20.64,6.68c0.04,0.07,0.07,0.14,0.11,0.22l15.34,30.68c3.8,7.58,0.73,16.79-6.84,20.59
	C679.53,203.34,677.18,203.9,674.79,203.9z"/>
<path class="st9" d="M567.4,173.22c-2.39,0-4.74-0.56-6.87-1.63l-30.68-15.34c-7.6-3.74-10.74-12.93-7-20.54
	c3.74-7.6,12.93-10.74,20.54-7c0.07,0.03,0.14,0.07,0.21,0.11l30.68,15.34c7.57,3.8,10.64,13.01,6.84,20.59
	C578.51,169.94,573.21,173.22,567.4,173.22z"/>
<path class="st10" d="M766.84,326.63H91.81c-16.95,0-30.68-13.74-30.68-30.68s13.74-30.68,30.68-30.68h675.03
	c16.95,0,30.68,13.74,30.68,30.68S783.79,326.63,766.84,326.63z"/>
<path class="st3" d="M413.98,295.95c0-16.95-13.74-30.68-30.68-30.68H91.81c-16.95,0-30.68,13.74-30.68,30.68
	s13.74,30.68,30.68,30.68H383.3C400.25,326.63,413.98,312.9,413.98,295.95z"/>
<path class="st1" d="M797.53,295.95c0-16.95-13.74-30.68-30.68-30.68H536.72c-16.95,0-30.68,13.74-30.68,30.68
	s13.74,30.68,30.68,30.68h230.13C783.79,326.63,797.53,312.9,797.53,295.95z"/>
<linearGradient id="SVGID_2_" gradientUnits="userSpaceOnUse" x1="58.4734" y1="392.3622" x2="800.3648" y2="46.4126" gradientTransform="matrix(1 0 0 -1 0 571.5159)">
	<stop  offset="0" style="stop-color:#FFFFFF;stop-opacity:0.2"/>
	<stop  offset="1" style="stop-color:#FFFFFF;stop-opacity:0"/>
</linearGradient>
<path class="st11" d="M797.53,234.58v-46.03c0-82.57-147.96-138.08-368.2-138.08s-368.2,55.51-368.2,138.08v46.03
	c0,16.95,13.74,30.68,30.68,30.68c-16.95,0-30.68,13.74-30.68,30.68c0,11.23,6.32,20.65,15.34,25.99v35.38
	c0,16.95,13.74,30.68,30.68,30.68c-25.42,0-46.03,20.61-46.03,46.03c0,25.42,20.61,46.03,46.03,46.03H91.81
	c-16.95,0-30.68,13.74-30.68,30.68c0,50.84,41.21,92.05,92.05,92.05h552.3c50.84,0,92.05-41.21,92.05-92.05
	c0-16.95-13.74-30.68-30.68-30.68H751.5c25.42,0,46.03-20.61,46.03-46.03c0-25.42-20.61-46.03-46.03-46.03
	c16.95,0,30.68-13.74,30.68-30.68v-35.38c9.02-5.34,15.34-14.73,15.34-25.99c0-16.95-13.74-30.68-30.68-30.68
	C783.79,265.27,797.53,251.53,797.53,234.58z"/>
<text transform="matrix(1 0 0 1 833.7794 387.9995)" class="st12 st13">Hamburger Boost</text>
</svg>
