<?xml version="1.0" encoding="utf-8"?>
<!-- Generator: Adobe Illustrator 25.2.1, SVG Export Plug-In . SVG Version: 6.00 Build 0)  -->
<svg version="1.1" id="Capa_1" xmlns="http://www.w3.org/2000/svg" xmlns:xlink="http://www.w3.org/1999/xlink" x="0px" y="0px"
	 viewBox="0 0 1119 430.2" style="enable-background:new 0 0 1119 430.2;" xml:space="preserve">
<style type="text/css">
	.st0{fill:#E94444;}
	.st1{fill:#D83131;}
	.st2{fill:#FE9738;}
	.st3{fill:#FE860A;}
	.st4{fill:#BBEC6C;}
	.st5{fill:#A2E62E;}
	.st6{fill:#FEE45A;}
	.st7{fill:#FEDF30;}
	.st8{fill:#9E5528;}
	.st9{fill:#904D24;}
	.st10{fill:#E57917;}
	.st11{font-family:'Roboto-Regular';}
	.st12{font-size:133px;}
</style>
<g>
	<path class="st0" d="M379.1,315H63c-13.6,0-24.7-11-24.7-24.7v-4.9c0-13.6,11-24.7,24.7-24.7h316c13.6,0,24.7,11,24.7,24.7v4.9
		C403.7,303.9,392.7,315,379.1,315z"/>
	<path class="st1" d="M403.7,285.5v4.9c0,13.6-11,24.7-24.7,24.7h-14.4c13.6,0,24.7-11,24.7-24.7v-4.9c0-13.6-11-24.7-24.7-24.7
		h14.4C392.7,260.8,403.7,271.8,403.7,285.5z"/>
	<path class="st2" d="M379.1,315H221H63c0,0-10.9,52.6,51.1,73.3c10.6,3.5,21.7,5.2,32.8,5.2H221h74.1c11.1,0,22.2-1.7,32.8-5.2
		C390,367.6,379.1,315,379.1,315L379.1,315z"/>
	<path class="st3" d="M327.9,388.3c-10.6,3.6-21.7,5.2-32.8,5.2h-16.7c11.1,0,22.2-1.7,32.8-5.2c62-20.7,51.1-73.3,51.1-73.3h16.7
		C379.1,315,390,367.6,327.9,388.3z"/>
	<path class="st4" d="M379.6,270.6c0,12.3-14.3,19-23.8,11.2c-3.9-3.2-8.5-5.8-15.9-5.8c-19.8,0-19.8,15.7-39.7,15.7
		c-19.8,0-19.8-15.7-39.7-15.7c-19.8,0-19.8,15.7-39.7,15.7c-19.8,0-19.8-15.7-39.7-15.7c-19.8,0-19.8,15.7-39.7,15.7
		c-19.8,0-19.8-15.7-39.7-15.7c-7.3,0-11.9,2.5-15.8,5.8c-9.5,7.8-23.8,1.1-23.8-11.2v-29.1h317.4L379.6,270.6L379.6,270.6z"/>
	<path class="st5" d="M379.6,241.5v29.1c0,11.5-12.5,18.1-21.9,12.5c4.2-2.4,7.1-6.9,7.1-12.5v-29.1L379.6,241.5z"/>
	<path class="st6" d="M62.4,218.1v23.6h34c7.1,0,12.8,5.7,12.8,12.8v67.9c0,9,7.3,16.4,16.4,16.4s16.4-7.3,16.4-16.4v-67.9
		c0-7.1,5.7-12.8,12.8-12.8h224.8v-23.6L62.4,218.1z"/>
	<path class="st7" d="M364.8,218.1h14.8v23.6h-14.8V218.1z"/>
	<path class="st8" d="M379.1,219.7H63c-13.6,0-24.7-11-24.7-24.7v-4.9c0-13.6,11-24.7,24.7-24.7h316c13.6,0,24.7,11,24.7,24.7v4.9
		C403.7,208.7,392.7,219.7,379.1,219.7z"/>
	<path class="st9" d="M403.7,190.2v4.9c0,13.6-11,24.7-24.7,24.7h-14.4c13.6,0,24.7-11,24.7-24.7v-4.9c0-13.6-11-24.7-24.7-24.7
		h14.4C392.7,165.5,403.7,176.6,403.7,190.2z"/>
	<path class="st2" d="M221,31.7C97.8,33.5,56.4,100.3,42.8,139.1c-4.7,13.3,5.3,27.2,19.4,27.2H221h158.9
		c14.2,0,24.1-14.1,19.3-27.5C385.5,100,344,33.4,221,31.7L221,31.7z"/>
	<path class="st3" d="M379.9,166.3h-1.8c4.8-5.3,6.8-13.1,4.1-20.7C368.5,106.8,327,40.2,204,38.5c-31.8,0.5-58.2,5.3-80,12.8
		c24.8-11.4,56.4-19,97-19.6c123,1.8,164.4,68.4,178.2,107.2C404,152.3,394.1,166.3,379.9,166.3L379.9,166.3z"/>
	<g>
		<g>
			<path class="st10" d="M170.2,88.2c-0.9,0-1.7-0.2-2.5-0.6c-2.6-1.4-3.6-4.6-2.2-7.2l4.8-8.8c1.4-2.6,4.6-3.6,7.2-2.2
				c2.6,1.4,3.6,4.6,2.2,7.2l-4.8,8.8C173.9,87.2,172.1,88.2,170.2,88.2z"/>
		</g>
		<g>
			<path class="st10" d="M221,88.8c-2.9,0-5.3-2.4-5.3-5.3V73.4c0-2.9,2.4-5.3,5.3-5.3s5.3,2.4,5.3,5.3v10.1
				C226.3,86.4,223.9,88.8,221,88.8z"/>
		</g>
		<g>
			<path class="st10" d="M271.9,88.1c-1.8,0-3.6-1-4.6-2.7l-5-8.7c-1.5-2.5-0.6-5.8,1.9-7.3s5.8-0.6,7.3,1.9l5,8.7
				c1.5,2.5,0.6,5.8-1.9,7.3C273.7,87.9,272.8,88.1,271.9,88.1z"/>
		</g>
	</g>
</g>
<text transform="matrix(1 0 0 1 422.724 192.6326)"><tspan x="0" y="0" class="st11 st12">Hamburger</tspan><tspan x="160.1" y="159.6" class="st11 st12">Boost</tspan></text>
</svg>
