<svg xmlns="http://www.w3.org/2000/svg" width="48" height="48" viewBox="0 0 48 48"><g transform="matrix(.66667 0 0 .66667 58.636 -2251.9)"><circle cx="-51.954" cy="3413.85" r="36" fill="#f29f4a"/><g transform="translate(1094.133 677.26)"><path d="m -1147,2717.579 0,0 a 0.750075,0.750075 0 0 0 -0.5176,0.207 l -22,21 a 0.750075,0.750075 0 0 0 -0.039,1.0469 l 19,21 a 0.750075,0.750075 0 0 0 1.0878,0.025 l 23,-23 a 0.750075,0.750075 0 0 0 0.2188,-0.5312 l 0,-19 a 0.750075,0.750075 0 0 0 -0.75,-0.75 l -20,0 z" style="line-height:normal;text-indent:0;text-align:start;text-decoration-line:none;text-decoration-style:solid;text-decoration-color:#000;text-transform:none;block-progression:tb;white-space:normal;isolation:auto;mix-blend-mode:normal;solid-color:#000;solid-opacity:1" fill="#3b322e" color="#000" enable-background="accumulate" font-family="sans-serif" font-weight="400" overflow="visible"/><path d="m -1146.6992,2719.081 18.9492,0 0,17.9394 -22.2227,22.2227 -17.9804,-19.8731 21.2539,-20.289 z" style="line-height:normal;text-indent:0;text-align:start;text-decoration-line:none;text-decoration-style:solid;text-decoration-color:#000;text-transform:none;block-progression:tb;white-space:normal;isolation:auto;mix-blend-mode:normal;solid-color:#000;solid-opacity:1" fill="#36d7b7" color="#000" enable-background="accumulate" font-family="sans-serif" font-weight="400" overflow="visible"/><path d="m -1146.5654,2736.8955 c -1.3386,-1.3387 -3.531,-1.3387 -4.8696,-1e-4 -1.3386,1.3386 -1.3386,3.5311 0,4.8697 1.3386,1.3386 3.5311,1.3386 4.8697,0 1.3386,-1.3386 1.3386,-3.531 -10e-5,-4.8696 z" style="line-height:normal;text-indent:0;text-align:start;text-decoration-line:none;text-decoration-style:solid;text-decoration-color:#000;text-transform:none;block-progression:tb;white-space:normal;isolation:auto;mix-blend-mode:normal;solid-color:#000;solid-opacity:1" fill="#3b322e" color="#000" enable-background="accumulate" font-family="sans-serif" font-weight="400" overflow="visible"/><path d="m -1147.626,2737.9561 c 0.7653,0.7654 0.7654,1.983 0,2.7483 -0.7653,0.7654 -1.983,0.7654 -2.7483,0 -0.7654,-0.7653 -0.7654,-1.983 0,-2.7483 0.7653,-0.7654 1.9829,-0.7653 2.7483,0 z" style="line-height:normal;text-indent:0;text-align:start;text-decoration-line:none;text-decoration-style:solid;text-decoration-color:#000;text-transform:none;block-progression:tb;white-space:normal;isolation:auto;mix-blend-mode:normal;solid-color:#000;solid-opacity:1" fill="#fcd116" color="#000" enable-background="accumulate" font-family="sans-serif" font-weight="400" overflow="visible"/><path d="m -1145.0273,2730.584 a 0.750075,0.750075 0 0 0 -0.6797,0.998 l 0.9961,2.9864 a 0.750075,0.750075 0 0 0 0.4746,0.4726 l 2.9863,0.9961 a 0.750075,0.750075 0 1 0 0.4727,-1.4219 l -2.6289,-0.8769 -0.877,-2.6309 a 0.750075,0.750075 0 0 0 -0.7441,-0.5234 z" style="line-height:normal;text-indent:0;text-align:start;text-decoration-line:none;text-decoration-style:solid;text-decoration-color:#000;text-transform:none;block-progression:tb;white-space:normal;isolation:auto;mix-blend-mode:normal;solid-color:#000;solid-opacity:1" fill="#3b322e" fill-rule="evenodd" color="#000" enable-background="accumulate" font-family="sans-serif" font-weight="400" overflow="visible"/><path d="M-1142.0254 2731.584a.750075.750075 0 00-.5156.2265l-4.9785 4.9805a.750075.750075 0 101.0605 1.0606l4.9785-4.9805a.750075.750075 0 00-.5449-1.2871zM-1151.0254 2740.584a.750075.750075 0 00-.5156.2265l-4.9785 4.9786a.75059418.75059418 0 101.0605 1.0625l4.9785-4.9805a.750075.750075 0 00-.5449-1.2871z" style="line-height:normal;text-indent:0;text-align:start;text-decoration-line:none;text-decoration-style:solid;text-decoration-color:#000;text-transform:none;block-progression:tb;white-space:normal;isolation:auto;mix-blend-mode:normal;solid-color:#000;solid-opacity:1" fill="#3b322e" fill-rule="evenodd" color="#000" enable-background="accumulate" font-family="sans-serif" font-weight="400" overflow="visible"/><path d="M-1156.9688 2742.582a.750075.750075 0 00-.2558 1.4649l2.6308.8769.877 2.6309a.75040849.75040849 0 001.4238-.4746l-.9961-2.9863a.750075.750075 0 00-.4746-.4747l-2.9863-.9961a.750075.750075 0 00-.2188-.041zM-1140.9785 2742.582a.750075.750075 0 00-.2715.041l-2.9863.9961a.750075.750075 0 00-.4746.4747l-.9961 2.9863a.75040849.75040849 0 001.4238.4746l.877-2.6309 2.6289-.8769a.750075.750075 0 00-.2012-1.4649z" style="line-height:normal;text-indent:0;text-align:start;text-decoration-line:none;text-decoration-style:solid;text-decoration-color:#000;text-transform:none;block-progression:tb;white-space:normal;isolation:auto;mix-blend-mode:normal;solid-color:#000;solid-opacity:1" fill="#3b322e" fill-rule="evenodd" color="#000" enable-background="accumulate" font-family="sans-serif" font-weight="400" overflow="visible"/><path d="M-1146.998 2740.582a.750075.750075 0 00-.5215 1.2891l4.9785 4.9805a.75059418.75059418 0 101.0605-1.0625l-4.9785-4.9786a.750075.750075 0 00-.539-.2285zM-1155.998 2731.582a.750075.750075 0 00-.5215 1.2891l4.9785 4.9805a.75059418.75059418 0 101.0605-1.0625l-4.9785-4.9786a.750075.750075 0 00-.539-.2285z" style="line-height:normal;text-indent:0;text-align:start;text-decoration-line:none;text-decoration-style:solid;text-decoration-color:#000;text-transform:none;block-progression:tb;white-space:normal;isolation:auto;mix-blend-mode:normal;solid-color:#000;solid-opacity:1" fill="#3b322e" fill-rule="evenodd" color="#000" enable-background="accumulate" font-family="sans-serif" font-weight="400" overflow="visible"/><path d="M-1152.9961 2730.584a.750075.750075 0 00-.7207.5234l-.877 2.6309-2.6289.8769a.750075.750075 0 10.4727 1.4219l2.9863-.9961a.750075.750075 0 00.4746-.4726l.9961-2.9864a.750075.750075 0 00-.7031-.998zM-1136.998 2724.582a.750075.750075 0 00-.5215 1.2891l2.9785 2.9805a.75059418.75059418 0 101.0605-1.0625l-2.9785-2.9786a.750075.750075 0 00-.539-.2285z" style="line-height:normal;text-indent:0;text-align:start;text-decoration-line:none;text-decoration-style:solid;text-decoration-color:#000;text-transform:none;block-progression:tb;white-space:normal;isolation:auto;mix-blend-mode:normal;solid-color:#000;solid-opacity:1" fill="#3b322e" fill-rule="evenodd" color="#000" enable-background="accumulate" font-family="sans-serif" font-weight="400" overflow="visible"/><path d="m -1134.0254,2724.584 a 0.750075,0.750075 0 0 0 -0.5156,0.2265 l -2.9785,2.9786 a 0.75059418,0.75059418 0 1 0 1.0605,1.0625 l 2.9785,-2.9805 a 0.750075,0.750075 0 0 0 -0.5449,-1.2871 z" style="line-height:normal;text-indent:0;text-align:start;text-decoration-line:none;text-decoration-style:solid;text-decoration-color:#000;text-transform:none;block-progression:tb;white-space:normal;isolation:auto;mix-blend-mode:normal;solid-color:#000;solid-opacity:1" fill="#3b322e" fill-rule="evenodd" color="#000" enable-background="accumulate" font-family="sans-serif" font-weight="400" overflow="visible"/><path style="line-height:normal;text-indent:0;text-align:start;text-decoration-line:none;text-decoration-style:solid;text-decoration-color:#000;text-transform:none;block-progression:tb;white-space:normal;isolation:auto;mix-blend-mode:normal;solid-color:#000;solid-opacity:1" fill="#3b3c3d" d="M-1129.5625 1714.7188l0 17.9394-21.2715 21.2715.8613.9512 22.2227-22.2227 0-17.9394-1.8125 0zM-1149 1733.0195c-.1793 0-.3573.036-.5312.086.307.088.5994.244.8437.4883.7653.7654.7654 1.9827 0 2.748-.2443.2443-.5367.4019-.8437.4902.6548.1885 1.3832.031 1.9042-.4902.7654-.7653.7653-1.9826 0-2.748-.3827-.3827-.8773-.5743-1.373-.5743z" color="#000" enable-background="accumulate" font-family="sans-serif" font-weight="400" opacity=".2" overflow="visible" transform="translate(0 1004.362)"/></g></g></svg>