<svg xmlns="http://www.w3.org/2000/svg" enable-background="new 0 0 512 512" viewBox="0 0 512 512"><path d="M226.1,232.9c29.5,0,57.7-2.3,79.5-6.4c24.2-4.5,32.6-9.9,34.1-11.9c0.3-4.1,3.8-7.3,8-7.3c4.4,0,8,3.6,8,8
	c0,11.7-13.3,19.9-42,25.9c-23.5,4.9-54.6,7.7-87.6,7.7c-33,0-64.1-2.7-87.6-7.7c-28.6-6-42-14.3-42-25.9c0-4.4,3.6-8,8-8
	c4.2,0,7.6,3.2,8,7.3c1.5,2,9.9,7.3,34.1,11.9C168.4,230.7,196.6,232.9,226.1,232.9z M504.9,79.4c-0.7,2-2.1,3.7-4,4.6l-141.7,70.3
	c55.2,14,86.3,35.8,86.3,61.1c0,22.2-23.3,41.5-67.5,55.6c-2.8,0.9-5.6,1.8-8.5,2.6v163.8c0,24.7-15.1,44.7-43.5,57.9
	c-23.3,10.8-55.5,16.7-90.7,16.7c-74,0-152.7-26.2-152.7-74.6V273.5c-2.9-0.8-5.7-1.7-8.5-2.6C30,256.8,6.6,237.5,6.6,215.3
	s23.3-41.5,67.5-55.6c40.7-13.1,94.7-20.3,152-20.3c19.2,0,38.3,0.8,56.6,2.4l198.2-98.3c4-2,8.7-0.3,10.7,3.6l13,26.1
	C505.5,75.2,505.6,77.4,504.9,79.4z M238,181.9l5.8,11.8l46.9-23.3l-5.8-11.8L238,181.9z M353.6,277.7c-36.8,8.8-81,13.5-127.5,13.5
	c-46.4,0-90.7-4.7-127.5-13.5v159.6c0,21.5,25.7,35.4,40.9,41.7c25.8,10.8,60.7,16.9,95.8,16.9c32.9,0,62.7-5.4,83.9-15.3
	c22.7-10.5,34.3-25.1,34.3-43.4V277.7z M336.5,165.5l-92.7,46c-1.1,0.6-2.4,0.8-3.5,0.8c-2.9,0-5.8-1.6-7.2-4.4l-13-26.1
	c-0.9-1.9-1.1-4.1-0.4-6.1c0.7-2,2.1-3.7,4-4.6l30.4-15.1c-9.2-0.4-18.6-0.6-28-0.6c-55.7,0-107.9,6.9-147.1,19.5
	c-35.3,11.3-56.4,26.4-56.4,40.4s21.1,29.1,56.4,40.4c39.2,12.6,91.4,19.5,147.1,19.5s107.9-6.9,147.1-19.5
	c35.3-11.3,56.4-26.4,56.4-40.4c0-8.7-8.5-18.3-24-26.9C388.9,179.2,365.1,171.3,336.5,165.5z M486.7,73.2l-5.8-11.8l-181.6,90
	l5.8,11.8L486.7,73.2z M219.9,96.4h4.8v4.9c0,4.4,3.6,8,8,8s8-3.6,8-8v-4.9h4.9c4.4,0,8-3.6,8-8s-3.6-8-8-8h-4.9v-4.8
	c0-4.4-3.6-8-8-8s-8,3.6-8,8v4.8h-4.8c-4.4,0-8,3.6-8,8S215.4,96.4,219.9,96.4z M303.1,29.6c0-2.6,1.3-5,3.4-6.5l11.6-8.2l8.2-11.6
	c1.5-2.1,3.9-3.4,6.5-3.4c0,0,0,0,0,0c2.6,0,5,1.3,6.5,3.4l8.2,11.6l11.5,8.2c2.1,1.5,3.4,3.9,3.4,6.5s-1.2,5-3.4,6.5l-11.6,8.2
	L339.3,56c-1.5,2.1-3.9,3.4-6.5,3.4c0,0,0,0,0,0c-2.6,0-5-1.3-6.5-3.4L318,44.4l-11.6-8.2C304.4,34.7,303.1,32.2,303.1,29.6z
	 M324.9,29.7l3.5,2.5c0.7,0.5,1.4,1.2,1.9,1.9l2.5,3.5l2.5-3.5c0.5-0.7,1.1-1.4,1.9-1.9l3.5-2.5l-3.5-2.5c-0.7-0.5-1.4-1.2-1.9-1.9
	l-2.5-3.5l-2.5,3.5c-0.5,0.7-1.2,1.4-1.9,1.9L324.9,29.7z M497.4,153.7c0,2.6-1.2,5-3.4,6.5l-11.6,8.2l-8.2,11.6
	c-1.5,2.1-3.9,3.4-6.5,3.4s-5-1.2-6.5-3.4l-8.2-11.6l-11.6-8.2c-2.1-1.5-3.4-3.9-3.4-6.5s1.2-5,3.4-6.5l11.6-8.2l8.2-11.6
	c1.5-2.1,3.9-3.4,6.5-3.4s5,1.2,6.5,3.4l8.2,11.6l11.6,8.2C496.1,148.7,497.4,151.1,497.4,153.7z M475.6,153.7l-3.5-2.5
	c-0.7-0.5-1.4-1.1-1.9-1.9l-2.5-3.5l-2.5,3.5c-0.5,0.7-1.1,1.4-1.9,1.9l-3.5,2.5l3.5,2.5c0.7,0.5,1.4,1.1,1.9,1.9l2.5,3.5l2.5-3.5
	c0.5-0.7,1.1-1.4,1.9-1.9L475.6,153.7z"/></svg>