<svg xmlns="http://www.w3.org/2000/svg" width="48" height="48" viewBox="0 0 48 48"><g transform="translate(1186.623 -861.412)"><path d="m -1155.6272,867.66283 a 0.750075,0.750075 0 0 0 -0.5722,0.2695 l -4.6426,5.5703 -6.4863,-2.7792 a 0.750075,0.750075 0 0 0 -0.9199,1.1035 l 3.6269,5.4394 -5.4824,4.5703 a 0.750075,0.750075 0 0 0 0.5723,1.3203 l 7.5058,-0.9394 3.752,6.5664 a 0.750075,0.750075 0 0 0 1.4004,-0.3711 l 0,-7.3379 7.3437,-0.918 a 0.750075,0.750075 0 0 0 0.2012,-1.4335 l -6.4805,-2.7793 0.9297,-7.4395 a 0.750075,0.750075 0 0 0 -0.7481,-0.8418 z" style="line-height:normal;text-indent:0;text-align:start;text-decoration-line:none;text-decoration-style:solid;text-decoration-color:#000;text-transform:none;block-progression:tb;white-space:normal;isolation:auto;mix-blend-mode:normal;solid-color:#000;solid-opacity:1" fill="#5a3392" fill-rule="evenodd" color="#000" enable-background="accumulate" font-family="sans-serif" font-weight="400" overflow="visible"/><path d="m -1156.6838,870.85623 -0.6836,5.4629 a 0.750075,0.750075 0 0 0 0.4492,0.7812 l 4.4571,1.9121 -5.2559,0.6563 a 0.750075,0.750075 0 0 0 -0.6562,0.7441 l 0,5.1758 -2.5997,-4.5488 a 0.750075,0.750075 0 0 0 -0.7441,-0.3711 l -5.4609,0.6816 4.0351,-3.3613 a 0.750075,0.750075 0 0 0 0.1426,-0.9922 l -2.6016,-3.9043 4.6836,2.0078 a 0.750075,0.750075 0 0 0 0.8711,-0.209 l 3.3633,-4.0351 z" style="line-height:normal;text-indent:0;text-align:start;text-decoration-line:none;text-decoration-style:solid;text-decoration-color:#000;text-transform:none;block-progression:tb;white-space:normal;isolation:auto;mix-blend-mode:normal;solid-color:#000;solid-opacity:1" fill="#ee746c" fill-rule="evenodd" color="#000" enable-background="accumulate" font-family="sans-serif" font-weight="400" overflow="visible"/><path style="line-height:normal;text-indent:0;text-align:start;text-decoration-line:none;text-decoration-style:solid;text-decoration-color:#000;text-transform:none;block-progression:tb;white-space:normal;isolation:auto;mix-blend-mode:normal;solid-color:#000;solid-opacity:1" fill="#5a3392" fill-rule="evenodd" d="m -1161.5977,-123.69727 a 0.750075,0.750075 0 0 0 -0.076,0.002 0.750075,0.750075 0 0 0 -0.6309,0.43359 l -6.2207,12.91797 1.666,0 5.9063,-12.26758 a 0.750075,0.750075 0 0 0 -0.6446,-1.08594 z m -7.6484,14.85352 -0.7227,1.5 1.6641,0 0.7227,-1.5 -1.6641,0 z m -1.4453,3 -4.6016,9.556641 a 0.750075,0.750075 0 1 0 1.3516,0.65039 l 4.9141,-10.207031 -1.6641,0 z" color="#000" enable-background="accumulate" font-family="sans-serif" font-weight="400" overflow="visible" transform="translate(0 1004.362)"/><path d="m -1177.6311,861.66283 a 0.750075,0.750075 0 0 0 -0.6894,0.4707 l -1.8926,4.7363 -3.7461,1.8711 a 0.750075,0.750075 0 0 0 0,1.3418 l 3.7461,1.8731 1.8926,4.7344 a 0.750075,0.750075 0 0 0 1.3926,0 l 1.8945,-4.7344 3.7461,-1.8731 a 0.750075,0.750075 0 0 0 0,-1.3418 l -3.7461,-1.8711 -1.8945,-4.7363 a 0.750075,0.750075 0 0 0 -0.7032,-0.4707 z" style="line-height:normal;text-indent:0;text-align:start;text-decoration-line:none;text-decoration-style:solid;text-decoration-color:#000;text-transform:none;block-progression:tb;white-space:normal;isolation:auto;mix-blend-mode:normal;solid-color:#000;solid-opacity:1" fill="#5a3392" fill-rule="evenodd" color="#000" enable-background="accumulate" font-family="sans-serif" font-weight="400" overflow="visible"/><path d="m -1177.6211,864.43043 1.3027,3.2598 a 0.750075,0.750075 0 0 0 0.3613,0.3925 l 2.6582,1.3301 -2.6582,1.3281 a 0.750075,0.750075 0 0 0 -0.3613,0.3926 l -1.3027,3.2598 -1.3047,-3.2598 a 0.750075,0.750075 0 0 0 -0.3594,-0.3926 l -2.6582,-1.3281 2.6582,-1.3301 a 0.750075,0.750075 0 0 0 0.3594,-0.3925 l 1.3047,-3.2598 z" style="line-height:normal;text-indent:0;text-align:start;text-decoration-line:none;text-decoration-style:solid;text-decoration-color:#000;text-transform:none;block-progression:tb;white-space:normal;isolation:auto;mix-blend-mode:normal;solid-color:#000;solid-opacity:1" fill="#fff" fill-rule="evenodd" color="#000" enable-background="accumulate" font-family="sans-serif" font-weight="400" overflow="visible"/><path d="m -1150.674,894.66283 a 0.750075,0.750075 0 0 0 -0.6289,0.4316 l -1.5469,3.3125 -3.0703,1.3165 a 0.750075,0.750075 0 0 0 0,1.3789 l 3.0703,1.3144 1.5469,3.3125 a 0.750075,0.750075 0 0 0 1.3593,0 l 1.545,-3.3125 3.0703,-1.3144 a 0.750075,0.750075 0 0 0 0,-1.3789 l -3.0703,-1.3165 -1.545,-3.3125 a 0.750075,0.750075 0 0 0 -0.7304,-0.4316 z" style="line-height:normal;text-indent:0;text-align:start;text-decoration-line:none;text-decoration-style:solid;text-decoration-color:#000;text-transform:none;block-progression:tb;white-space:normal;isolation:auto;mix-blend-mode:normal;solid-color:#000;solid-opacity:1" fill="#5a3392" fill-rule="evenodd" color="#000" enable-background="accumulate" font-family="sans-serif" font-weight="400" overflow="visible"/><path d="m -1150.623,897.18623 0.9863,2.1153 a 0.750075,0.750075 0 0 0 0.3847,0.3711 l 1.7247,0.7402 -1.7247,0.7383 a 0.750075,0.750075 0 0 0 -0.3847,0.373 l -0.9863,2.1153 -0.9883,-2.1153 a 0.750075,0.750075 0 0 0 -0.3828,-0.373 l -1.7246,-0.7383 1.7246,-0.7402 a 0.750075,0.750075 0 0 0 0.3828,-0.3711 l 0.9883,-2.1153 z" style="line-height:normal;text-indent:0;text-align:start;text-decoration-line:none;text-decoration-style:solid;text-decoration-color:#000;text-transform:none;block-progression:tb;white-space:normal;isolation:auto;mix-blend-mode:normal;solid-color:#000;solid-opacity:1" fill="#fff" fill-rule="evenodd" color="#000" enable-background="accumulate" font-family="sans-serif" font-weight="400" overflow="visible"/><path d="m -1180.6232,879.66283 c -1.5099,0 -2.75,1.2401 -2.75,2.75 0,1.5099 1.2401,2.75 2.75,2.75 1.5099,0 2.75,-1.2401 2.75,-2.75 0,-1.5099 -1.2401,-2.75 -2.75,-2.75 z" style="line-height:normal;text-indent:0;text-align:start;text-decoration-line:none;text-decoration-style:solid;text-decoration-color:#000;text-transform:none;block-progression:tb;white-space:normal;isolation:auto;mix-blend-mode:normal;solid-color:#000;solid-opacity:1" fill="#5a3392" color="#000" enable-background="accumulate" font-family="sans-serif" font-weight="400" overflow="visible"/><path d="m -1180.6232,881.16283 c 0.6992,0 1.25,0.5508 1.25,1.25 0,0.6992 -0.5508,1.25 -1.25,1.25 -0.6993,0 -1.25,-0.5508 -1.25,-1.25 0,-0.6992 0.5507,-1.25 1.25,-1.25 z" style="line-height:normal;text-indent:0;text-align:start;text-decoration-line:none;text-decoration-style:solid;text-decoration-color:#000;text-transform:none;block-progression:tb;white-space:normal;isolation:auto;mix-blend-mode:normal;solid-color:#000;solid-opacity:1" fill="#29a3ec" color="#000" enable-background="accumulate" font-family="sans-serif" font-weight="400" overflow="visible"/><path d="m -1143.6232,886.66283 c -1.5099,0 -2.75,1.2401 -2.75,2.75 0,1.5099 1.2401,2.75 2.75,2.75 1.5099,0 2.75,-1.2401 2.75,-2.75 0,-1.5099 -1.2401,-2.75 -2.75,-2.75 z" style="line-height:normal;text-indent:0;text-align:start;text-decoration-line:none;text-decoration-style:solid;text-decoration-color:#000;text-transform:none;block-progression:tb;white-space:normal;isolation:auto;mix-blend-mode:normal;solid-color:#000;solid-opacity:1" fill="#5a3392" color="#000" enable-background="accumulate" font-family="sans-serif" font-weight="400" overflow="visible"/><path d="m -1143.6232,888.16283 c 0.6992,0 1.25,0.5508 1.25,1.25 0,0.6992 -0.5508,1.25 -1.25,1.25 -0.6993,0 -1.25,-0.5508 -1.25,-1.25 0,-0.6992 0.5507,-1.25 1.25,-1.25 z" style="line-height:normal;text-indent:0;text-align:start;text-decoration-line:none;text-decoration-style:solid;text-decoration-color:#000;text-transform:none;block-progression:tb;white-space:normal;isolation:auto;mix-blend-mode:normal;solid-color:#000;solid-opacity:1" fill="#29a3ec" color="#000" enable-background="accumulate" font-family="sans-serif" font-weight="400" overflow="visible"/><path d="m -1161.1232,901.66283 c -1.2338,0 -2.25,1.0162 -2.25,2.25 0,1.2338 1.0162,2.25 2.25,2.25 1.2337,0 2.25,-1.0162 2.25,-2.25 0,-1.2338 -1.0163,-2.25 -2.25,-2.25 z" style="line-height:normal;text-indent:0;text-align:start;text-decoration-line:none;text-decoration-style:solid;text-decoration-color:#000;text-transform:none;block-progression:tb;white-space:normal;isolation:auto;mix-blend-mode:normal;solid-color:#000;solid-opacity:1" fill="#5a3392" color="#000" enable-background="accumulate" font-family="sans-serif" font-weight="400" overflow="visible"/><path d="m -1161.1232,903.16283 c 0.4231,0 0.75,0.3269 0.75,0.75 0,0.4231 -0.3269,0.75 -0.75,0.75 -0.4231,0 -0.75,-0.3269 -0.75,-0.75 0,-0.4231 0.3269,-0.75 0.75,-0.75 z" style="line-height:normal;text-indent:0;text-align:start;text-decoration-line:none;text-decoration-style:solid;text-decoration-color:#000;text-transform:none;block-progression:tb;white-space:normal;isolation:auto;mix-blend-mode:normal;solid-color:#000;solid-opacity:1" fill="#29a3ec" color="#000" enable-background="accumulate" font-family="sans-serif" font-weight="400" overflow="visible"/><path d="m -1164.1232,863.66283 c -1.2338,0 -2.25,1.0162 -2.25,2.25 0,1.2338 1.0162,2.25 2.25,2.25 1.2337,0 2.25,-1.0162 2.25,-2.25 0,-1.2338 -1.0163,-2.25 -2.25,-2.25 z" style="line-height:normal;text-indent:0;text-align:start;text-decoration-line:none;text-decoration-style:solid;text-decoration-color:#000;text-transform:none;block-progression:tb;white-space:normal;isolation:auto;mix-blend-mode:normal;solid-color:#000;solid-opacity:1" fill="#5a3392" color="#000" enable-background="accumulate" font-family="sans-serif" font-weight="400" overflow="visible"/><path d="m -1164.1232,865.16283 c 0.4231,0 0.75,0.3269 0.75,0.75 0,0.4231 -0.3269,0.75 -0.75,0.75 -0.4231,0 -0.75,-0.3269 -0.75,-0.75 0,-0.4231 0.3269,-0.75 0.75,-0.75 z" style="line-height:normal;text-indent:0;text-align:start;text-decoration-line:none;text-decoration-style:solid;text-decoration-color:#000;text-transform:none;block-progression:tb;white-space:normal;isolation:auto;mix-blend-mode:normal;solid-color:#000;solid-opacity:1" fill="#29a3ec" color="#000" enable-background="accumulate" font-family="sans-serif" font-weight="400" overflow="visible"/><path d="m -1143.1232,872.16283 c -1.2338,0 -2.25,1.0162 -2.25,2.25 0,1.2338 1.0162,2.25 2.25,2.25 1.2337,0 2.25,-1.0162 2.25,-2.25 0,-1.2338 -1.0163,-2.25 -2.25,-2.25 z" style="line-height:normal;text-indent:0;text-align:start;text-decoration-line:none;text-decoration-style:solid;text-decoration-color:#000;text-transform:none;block-progression:tb;white-space:normal;isolation:auto;mix-blend-mode:normal;solid-color:#000;solid-opacity:1" fill="#5a3392" color="#000" enable-background="accumulate" font-family="sans-serif" font-weight="400" overflow="visible"/><path d="m -1143.1232,873.66283 c 0.4231,0 0.75,0.3269 0.75,0.75 0,0.4231 -0.3269,0.75 -0.75,0.75 -0.4231,0 -0.75,-0.3269 -0.75,-0.75 0,-0.4231 0.3269,-0.75 0.75,-0.75 z" style="line-height:normal;text-indent:0;text-align:start;text-decoration-line:none;text-decoration-style:solid;text-decoration-color:#000;text-transform:none;block-progression:tb;white-space:normal;isolation:auto;mix-blend-mode:normal;solid-color:#000;solid-opacity:1" fill="#29a3ec" color="#000" enable-background="accumulate" font-family="sans-serif" font-weight="400" overflow="visible"/><path style="line-height:normal;text-indent:0;text-align:start;text-decoration-line:none;text-decoration-style:solid;text-decoration-color:#000;text-transform:none;block-progression:tb;white-space:normal;isolation:auto;mix-blend-mode:normal;solid-color:#000;solid-opacity:1" fill="#fb9761" fill-rule="evenodd" d="m -1157.3799,872.49141 -0.5318,4.25022 a 0.58356975,0.58356975 0 0 0 0.3495,0.60779 l 3.4676,1.48764 -4.0891,0.51061 a 0.58356975,0.58356975 0 0 0 -0.5106,0.57892 l 0,4.02686 -2.0226,-3.53904 a 0.58356975,0.58356975 0 0 0 -0.5789,-0.28872 l -4.2486,0.53029 3.1393,-2.61514 a 0.58356975,0.58356975 0 0 0 0.111,-0.77195 l -2.0241,-3.0376 3.6439,1.5621 a 0.58356975,0.58356975 0 0 0 0.6777,-0.16261 l 2.6167,-3.13937 z" color="#000" enable-background="accumulate" font-family="sans-serif" font-weight="400" overflow="visible"/><path style="line-height:normal;text-indent:0;text-align:start;text-decoration-line:none;text-decoration-style:solid;text-decoration-color:#000;text-transform:none;block-progression:tb;white-space:normal;isolation:auto;mix-blend-mode:normal;solid-color:#000;solid-opacity:1" fill="#ebfeff" fill-rule="evenodd" d="M-1177.6211 865.53528l1.0138 2.5368a.58371307.58371307 0 00.2811.30545l2.0687 1.03509-2.0687 1.03354a.58371307.58371307 0 00-.2811.30552l-1.0138 2.5368-1.0153-2.5368a.58371307.58371307 0 00-.2797-.30552l-2.0687-1.03354 2.0687-1.03509a.58371307.58371307 0 00.2797-.30545l1.0153-2.5368zM-1150.623 897.81123l.7953 1.70556a.60478371.60478371 0 00.3101.29922l1.3907.59682-1.3907.59529a.60478371.60478371 0 00-.3101.30075l-.7953 1.70556-.7969-1.70556a.60478371.60478371 0 00-.3086-.30075l-1.3906-.59529 1.3906-.59682a.60478371.60478371 0 00.3086-.29922l.7969-1.70556z" color="#000" enable-background="accumulate" font-family="sans-serif" font-weight="400" overflow="visible"/><path style="line-height:normal;text-indent:0;text-align:start;text-decoration-line:none;text-decoration-style:solid;text-decoration-color:#000;text-transform:none;block-progression:tb;white-space:normal;isolation:auto;mix-blend-mode:normal;solid-color:#000;solid-opacity:1" fill="#3cdef6" d="M-1143.6232 888.53848c.4891 0 .8743.38527.8743.87435 0 .48908-.3852.87435-.8743.87435-.4891 0-.8743-.38527-.8743-.87435 0-.48908.3852-.87435.8743-.87435zM-1180.6232 881.53848c.4891 0 .8743.38527.8743.87435 0 .48908-.3852.87435-.8743.87435-.4891 0-.8743-.38527-.8743-.87435 0-.48908.3852-.87435.8743-.87435zM-1143.1232 873.95009c.261 0 .4627.20169.4627.46274 0 .26105-.2017.46274-.4627.46274-.261 0-.4627-.20169-.4627-.46274 0-.26105.2017-.46274.4627-.46274zM-1164.1232 865.45009c.261 0 .4627.20169.4627.46274 0 .26105-.2017.46274-.4627.46274-.261 0-.4627-.20169-.4627-.46274 0-.26105.2017-.46274.4627-.46274zM-1161.1232 903.45009c.261 0 .4627.20169.4627.46274 0 .26105-.2017.46274-.4627.46274-.261 0-.4627-.20169-.4627-.46274 0-.26105.2017-.46274.4627-.46274z" color="#000" enable-background="accumulate" font-family="sans-serif" font-weight="400" overflow="visible"/></g></svg>