<svg width="395" height="430" viewBox="0 0 395 430" fill="none" xmlns="http://www.w3.org/2000/svg">
<path d="M206.895 391.423L206.397 210.457L196.309 209.292L183.729 211.621L184.993 387.646L195.944 389.912L206.895 391.423Z" fill="#2F2325"/>
<path d="M244.718 138.957C235.391 118.437 210.245 65.6387 268.243 63.2294C326.241 60.82 330.692 167.001 365.4 175.939C342.101 190.085 273.531 202.296 244.718 138.957Z" fill="#2F2325"/>
<path d="M140.438 127.93C152.556 108.519 184.588 58.8713 126.564 57.4949C68.5406 56.1186 50.1087 155.765 14.1022 164.604C35.8176 177.311 103.165 187.667 140.438 127.93Z" fill="#2F2325"/>
<path d="M142.583 96.167C141.629 93.5504 142.461 90.6156 144.643 88.8957L152.462 82.7345C155.247 80.5403 159.277 81.028 161.464 83.8237L165.138 88.52C167.325 91.3158 166.841 95.3609 164.057 97.5551L154.714 104.917C151.287 107.618 146.23 106.172 144.733 102.064L142.583 96.167Z" fill="#A45A49"/>
<path d="M229.876 81.864C231.793 79.8514 234.789 79.3079 237.297 80.5178L246.235 84.831C249.431 86.3732 250.779 90.216 249.247 93.4142L246.66 98.8145C245.128 102.013 241.295 103.355 238.099 101.813L227.408 96.654C223.477 94.757 222.529 89.5741 225.536 86.4186L229.876 81.864Z" fill="#FF607E"/>
<path d="M29.0032 284.571V298.265H117.972V284.571H29.0032Z" fill="#2F2325" stroke="#2F2325" stroke-width="1.79925" stroke-linecap="round" stroke-linejoin="round"/>
<path d="M38.1485 237.301H24.5037V292.092H38.1485V237.301Z" fill="#2F2325" stroke="#2F2325" stroke-width="1.79925" stroke-linecap="round" stroke-linejoin="round"/>
<path d="M43.8313 292.327C43.8313 293.974 43.5078 295.606 42.8791 297.128C42.2505 298.649 41.3291 300.032 40.1677 301.196C39.0063 302.361 37.6276 303.284 36.1105 303.913C34.5934 304.542 32.9676 304.865 31.326 304.863C30.917 304.863 30.5079 304.863 30.1135 304.863C27.8381 304.637 25.668 303.789 23.839 302.412C22.0101 301.035 20.5923 299.181 19.74 297.052C18.8876 294.922 18.6333 292.599 19.0046 290.335C19.3759 288.071 20.3587 285.952 21.846 284.209C23.3334 282.466 25.2684 281.166 27.4406 280.45C29.6128 279.733 31.9392 279.628 34.1666 280.146C36.3941 280.664 38.4374 281.785 40.0744 283.387C41.7115 284.99 42.8795 287.011 43.4515 289.233C43.701 290.245 43.8285 291.284 43.8313 292.327Z" fill="#ECD6C4" stroke="#2F2325" stroke-width="0.8" stroke-linecap="round" stroke-linejoin="round"/>
<path d="M44.7516 245.746C44.7438 249.071 43.4234 252.257 41.0794 254.607C38.7355 256.957 35.5592 258.278 32.2463 258.282C31.8372 258.282 31.4282 258.282 31.0191 258.282C28.7426 258.063 26.5695 257.222 24.7363 255.849C22.903 254.477 21.4798 252.627 20.6214 250.5C19.763 248.372 19.5023 246.049 19.8677 243.783C20.233 241.518 21.2105 239.396 22.6937 237.649C24.1769 235.902 26.1091 234.596 28.28 233.875C30.451 233.153 32.7775 233.043 35.0066 233.555C37.2358 234.068 39.2821 235.185 40.923 236.784C42.5638 238.382 43.7365 240.402 44.3133 242.623C44.5939 243.641 44.7412 244.69 44.7516 245.746Z" fill="#ECD6C4" stroke="#2F2325" stroke-width="0.8" stroke-linecap="round" stroke-linejoin="round"/>
<path d="M54.1745 226.568C54.1745 232.401 51.8658 237.995 47.7562 242.12C43.6467 246.244 38.0729 248.561 32.2611 248.561C31.5306 248.561 30.8002 248.561 30.1135 248.473C26.1273 248.077 22.3257 246.591 19.1218 244.178C15.9179 241.765 13.4344 238.516 11.9412 234.786C10.448 231.055 10.0022 226.985 10.6523 223.018C11.3024 219.051 13.0235 215.339 15.6285 212.285C18.2335 209.231 21.6228 206.952 25.428 205.696C29.2332 204.44 33.3087 204.254 37.2115 205.16C41.1143 206.066 44.6951 208.028 47.5647 210.833C50.4344 213.638 52.483 217.178 53.4879 221.07C53.941 222.868 54.1716 224.714 54.1745 226.568V226.568Z" fill="#ECD6C4" stroke="#2F2325" stroke-width="0.8" stroke-linecap="round" stroke-linejoin="round"/>
<path d="M64.3568 187.802L52.3708 208.612L51.7236 201.906L43.3286 210.985L57.3299 184.063L64.3568 187.802Z" fill="#2F2325" stroke="#2F2325" stroke-width="0.8" stroke-linecap="round" stroke-linejoin="round"/>
<path d="M67.2789 186.79L62.5018 195.807L51.8518 190.133L56.6143 181.102C57.3678 179.688 58.6479 178.631 60.1752 178.161C61.7025 177.691 63.3529 177.847 64.7662 178.594V178.594C66.1811 179.348 67.2402 180.634 67.7113 182.171C68.1824 183.707 68.0269 185.369 67.2789 186.79V186.79Z" fill="#ECD6C4" stroke="#2F2325" stroke-width="0.8" stroke-linecap="round" stroke-linejoin="round"/>
<path d="M55.6645 209.238C55.8984 207.713 55.6763 206.152 55.0262 204.754C54.3761 203.355 53.3273 202.182 52.0125 201.382C50.6977 200.582 49.1759 200.191 47.6398 200.259C46.1037 200.327 44.6222 200.851 43.3829 201.764C42.1435 202.678 41.202 203.94 40.6774 205.39C40.1527 206.841 40.0686 208.415 40.4357 209.913C40.8027 211.412 41.6044 212.768 42.7394 213.809C43.8743 214.85 45.2914 215.53 46.8115 215.763C47.8198 215.919 48.8489 215.874 49.8399 215.63C50.8309 215.387 51.7643 214.95 52.5867 214.343C53.409 213.737 54.1042 212.975 54.6323 212.098C55.1605 211.222 55.5112 210.25 55.6645 209.238V209.238Z" fill="#ECD6C4" stroke="#2F2325" stroke-width="0.8" stroke-linecap="round" stroke-linejoin="round"/>
<path d="M34.6715 174.313L34.0287 211.496L26.096 211.364L26.7242 174.181L34.6715 174.313Z" fill="#2F2325" stroke="#2F2325" stroke-width="0.8" stroke-linecap="round" stroke-linejoin="round"/>
<path d="M36.8193 172.07L36.6586 182.333L24.5916 182.04L24.7523 171.777C24.7656 170.981 24.9349 170.196 25.2505 169.467C25.566 168.737 26.0217 168.077 26.5915 167.525C27.1613 166.972 27.834 166.537 28.5712 166.245C29.3084 165.953 30.0957 165.81 30.8881 165.824V165.824C31.6886 165.835 32.4788 166.006 33.2125 166.328C33.9462 166.65 34.6086 167.115 35.161 167.696C35.7133 168.278 36.1445 168.964 36.4292 169.715C36.714 170.466 36.8466 171.267 36.8193 172.07V172.07Z" fill="#ECD6C4" stroke="#2F2325" stroke-width="0.8" stroke-linecap="round" stroke-linejoin="round"/>
<path d="M30.3037 212.537C34.596 212.537 38.0756 209.045 38.0756 204.737C38.0756 200.429 34.596 196.937 30.3037 196.937C26.0113 196.937 22.5317 200.429 22.5317 204.737C22.5317 209.045 26.0113 212.537 30.3037 212.537Z" fill="#ECD6C4" stroke="#2F2325" stroke-width="0.8" stroke-linecap="round" stroke-linejoin="round"/>
<path d="M54.1747 226.568C54.1747 232.401 51.866 237.995 47.7564 242.119C43.6468 246.244 38.073 248.561 32.2612 248.561C31.5307 248.561 30.8003 248.561 30.1137 248.473C29.2741 245.219 29.1889 241.815 29.8647 238.523C30.5404 235.231 31.9591 232.138 34.0117 229.482C36.0643 226.825 38.6962 224.677 41.7053 223.201C44.7144 221.725 48.0205 220.961 51.3698 220.967C52.0856 220.967 52.8307 220.967 53.5173 221.07C53.9605 222.869 54.1813 224.715 54.1747 226.568V226.568Z" fill="#ECD6C4" stroke="#2F2325" stroke-width="0.8" stroke-linecap="round" stroke-linejoin="round"/>
<path d="M164.517 292.723C168.238 276.765 158.364 260.801 142.463 257.067C126.563 253.333 110.656 263.242 106.935 279.201C103.215 295.159 113.089 311.123 128.989 314.857C144.89 318.591 160.797 308.682 164.517 292.723Z" fill="#ECD6C4"/>
<path d="M296.397 381.045L307.333 389.235L339.982 345.321L329.047 337.131L296.397 381.045Z" fill="#2F2325" stroke="#2F2325" stroke-width="1.79925" stroke-linecap="round" stroke-linejoin="round"/>
<path d="M331.881 348.645L340.042 337.67L268.736 284.269L260.576 295.245L331.881 348.645Z" fill="#2F2325" stroke="#2F2325" stroke-width="1.79925" stroke-linecap="round" stroke-linejoin="round"/>
<path d="M324.616 333.527C325.6 332.204 326.834 331.088 328.247 330.243C329.661 329.399 331.226 328.842 332.855 328.605C334.483 328.368 336.141 328.456 337.736 328.862C339.33 329.269 340.829 329.987 342.147 330.976L343.096 331.753C344.786 333.299 346.02 335.282 346.666 337.483C347.311 339.685 347.343 342.022 346.757 344.241C346.171 346.459 344.99 348.474 343.343 350.066C341.696 351.658 339.645 352.766 337.414 353.27C335.183 353.774 332.857 353.654 330.689 352.923C328.521 352.193 326.594 350.88 325.118 349.127C323.642 347.374 322.673 345.248 322.316 342.981C321.96 340.714 322.23 338.393 323.097 336.269C323.489 335.296 323.999 334.375 324.616 333.527Z" fill="#ECD6C4" stroke="#2F2325" stroke-width="0.8" stroke-linecap="round" stroke-linejoin="round"/>
<path d="M296.085 368.613C297.937 365.852 300.806 363.943 304.061 363.305C307.315 362.667 310.689 363.353 313.44 365.211C313.776 365.431 314.098 365.68 314.419 365.929C316.183 367.391 317.514 369.309 318.267 371.476C319.02 373.644 319.166 375.977 318.69 378.222C318.214 380.467 317.133 382.538 315.566 384.209C313.999 385.881 312.005 387.089 309.801 387.703C307.597 388.316 305.268 388.311 303.067 387.689C300.865 387.066 298.876 385.85 297.316 384.172C295.756 382.494 294.684 380.418 294.217 378.171C293.75 375.924 293.906 373.592 294.668 371.428C295.022 370.434 295.498 369.488 296.085 368.613V368.613Z" fill="#ECD6C4" stroke="#2F2325" stroke-width="0.8" stroke-linecap="round" stroke-linejoin="round"/>
<path d="M258.533 384.32L279.092 386.347L279.869 378.409L259.31 376.382L258.533 384.32Z" fill="#2F2325" stroke="#2F2325" stroke-width="1.79925" stroke-linecap="round" stroke-linejoin="round"/>
<path d="M257.283 374.111L267.422 375.108L266.238 387.16L256.1 386.163C254.507 386.007 253.042 385.223 252.025 383.983C251.009 382.743 250.525 381.148 250.68 379.55V379.55C250.839 377.951 251.623 376.48 252.861 375.46C254.099 374.441 255.689 373.955 257.283 374.111V374.111Z" fill="#ECD6C4" stroke="#2F2325" stroke-width="0.8" stroke-linecap="round" stroke-linejoin="round"/>
<path d="M277.59 379.243C279.195 376.841 281.257 374.781 283.657 373.18C286.057 371.579 288.748 370.469 291.576 369.914C294.404 369.358 297.313 369.368 300.137 369.942C302.962 370.516 305.645 371.644 308.035 373.26C308.634 373.671 309.203 374.096 309.759 374.551C312.847 377.112 315.177 380.475 316.494 384.273C317.812 388.07 318.066 392.158 317.231 396.091C316.395 400.024 314.501 403.651 311.755 406.579C309.008 409.507 305.514 411.623 301.653 412.697C297.792 413.772 293.711 413.763 289.855 412.672C285.998 411.581 282.513 409.45 279.78 406.51C277.046 403.571 275.167 399.935 274.348 395.998C273.529 392.062 273.802 387.976 275.135 384.184C275.74 382.438 276.565 380.778 277.59 379.243Z" fill="#ECD6C4" stroke="#2F2325" stroke-width="0.8" stroke-linecap="round" stroke-linejoin="round"/>
<path d="M253.982 402.086L281.154 381.691L285.522 387.541L258.35 407.921L253.982 402.086Z" fill="#2F2325" stroke="#2F2325" stroke-width="1.79925" stroke-linecap="round" stroke-linejoin="round"/>
<path d="M251.162 401.778L258.627 396.104L265.26 404.901L257.794 410.516C256.622 411.397 255.15 411.774 253.7 411.565C252.251 411.356 250.944 410.578 250.066 409.402V409.402C249.225 408.238 248.868 406.79 249.073 405.367C249.277 403.943 250.027 402.656 251.162 401.778V401.778Z" fill="#ECD6C4" stroke="#2F2325" stroke-width="0.8" stroke-linecap="round" stroke-linejoin="round"/>
<path d="M289.072 387.981C289.417 386.475 289.309 384.9 288.761 383.456C288.214 382.012 287.251 380.764 285.995 379.87C284.74 378.976 283.248 378.476 281.709 378.434C280.17 378.393 278.653 378.81 277.351 379.635C276.049 380.459 275.02 381.653 274.395 383.065C273.77 384.477 273.577 386.044 273.841 387.566C274.104 389.089 274.812 390.498 275.875 391.616C276.938 392.734 278.307 393.51 279.81 393.846C281.813 394.293 283.91 393.927 285.645 392.829C287.38 391.73 288.612 389.987 289.072 387.981Z" fill="#ECD6C4" stroke="#2F2325" stroke-width="0.8" stroke-linecap="round" stroke-linejoin="round"/>
<path d="M303.477 422.583L307.509 394.608L313.484 395.458L309.466 423.433L303.477 422.583Z" fill="#2F2325" stroke="#2F2325" stroke-width="1.79925" stroke-linecap="round" stroke-linejoin="round"/>
<path d="M301.651 424.064L302.746 416.366L311.818 417.671L310.723 425.354C310.639 425.953 310.438 426.529 310.131 427.05C309.825 427.571 309.42 428.026 308.938 428.39C308.456 428.753 307.908 429.018 307.324 429.169C306.741 429.32 306.133 429.354 305.537 429.269V429.269C304.334 429.094 303.25 428.449 302.521 427.473C301.793 426.497 301.48 425.271 301.651 424.064V424.064Z" fill="#ECD6C4" stroke="#2F2325" stroke-width="0.8" stroke-linecap="round" stroke-linejoin="round"/>
<path d="M315.821 393.626C315.134 392.55 314.144 391.703 312.976 391.192C311.809 390.681 310.517 390.528 309.264 390.753C308.01 390.978 306.851 391.571 305.934 392.457C305.016 393.343 304.38 394.482 304.107 395.731C303.834 396.979 303.935 398.281 304.398 399.471C304.862 400.661 305.666 401.687 306.71 402.419C307.755 403.151 308.991 403.556 310.264 403.582C311.538 403.609 312.79 403.257 313.864 402.569C315.304 401.643 316.319 400.181 316.686 398.504C317.053 396.827 316.742 395.073 315.821 393.626V393.626Z" fill="#ECD6C4" stroke="#2F2325" stroke-width="0.8" stroke-linecap="round" stroke-linejoin="round"/>
<path d="M276.582 418.859L294.697 390.063L300.847 393.934L282.747 422.744L276.582 418.859Z" fill="#2F2325" stroke="#2F2325" stroke-width="1.79925" stroke-linecap="round" stroke-linejoin="round"/>
<path d="M273.85 419.563L278.802 411.645L288.167 417.51L283.199 425.442C282.418 426.683 281.179 427.563 279.752 427.89C278.326 428.217 276.829 427.964 275.588 427.187V427.187C274.353 426.405 273.476 425.164 273.15 423.735C272.825 422.306 273.076 420.806 273.85 419.563V419.563Z" fill="#ECD6C4" stroke="#2F2325" stroke-width="0.8" stroke-linecap="round" stroke-linejoin="round"/>
<path d="M304.353 393.083C304.136 391.556 303.473 390.129 302.446 388.981C301.42 387.833 300.077 387.017 298.588 386.636C297.099 386.256 295.531 386.327 294.082 386.843C292.634 387.358 291.371 388.293 290.452 389.53C289.534 390.766 289.003 392.249 288.926 393.789C288.848 395.329 289.229 396.858 290.018 398.181C290.808 399.504 291.971 400.562 293.361 401.221C294.75 401.879 296.303 402.109 297.823 401.88C299.85 401.579 301.675 400.485 302.899 398.836C304.123 397.187 304.646 395.118 304.353 393.083V393.083Z" fill="#ECD6C4" stroke="#2F2325" stroke-width="0.8" stroke-linecap="round" stroke-linejoin="round"/>
<path d="M141.22 299.232C148.525 296.175 151.977 287.752 148.93 280.421C145.884 273.089 137.492 269.625 130.187 272.682C122.881 275.74 119.429 284.162 122.476 291.494C125.523 298.826 133.915 302.29 141.22 299.232Z" fill="#2F2325" stroke="#2F2325" stroke-width="1.79925" stroke-linecap="round" stroke-linejoin="round"/>
<path d="M270.794 311.43C284.525 302.559 288.491 284.196 279.652 270.415C270.813 256.634 252.516 252.653 238.785 261.524C225.053 270.395 221.088 288.759 229.927 302.54C238.766 316.321 257.063 320.301 270.794 311.43Z" fill="#ECD6C4"/>
<path d="M267.828 292.484C271.128 285.264 267.971 276.726 260.776 273.414C253.582 270.102 245.075 273.271 241.775 280.491C238.475 287.712 241.632 296.25 248.826 299.562C256.021 302.873 264.528 299.705 267.828 292.484Z" fill="#2F2325" stroke="#2F2325" stroke-width="1.79925" stroke-linecap="round" stroke-linejoin="round"/>
<path d="M262.816 227.154C273.015 214.319 279.399 198.857 281.231 182.544C283.064 166.23 280.271 149.729 273.175 134.938C266.078 120.147 254.966 107.667 241.116 98.9324C227.266 90.198 211.241 85.5644 194.884 85.5644C178.527 85.5644 162.501 90.198 148.652 98.9324C134.802 107.667 123.69 120.147 116.593 134.938C109.497 149.729 106.704 166.23 108.537 182.544C110.369 198.857 116.752 214.319 126.952 227.154H262.816Z" fill="#ECD6C4"/>
<g filter="url(#filter0_f_6_4)">
<ellipse cx="248.839" cy="169.577" rx="24.8353" ry="22.726" fill="#FEAFBE"/>
</g>
<g filter="url(#filter1_f_6_4)">
<ellipse cx="140.732" cy="169.577" rx="24.8353" ry="22.726" fill="#FEAFBE"/>
</g>
<path d="M248.061 139.856H139.574C132.974 139.856 127.624 145.226 127.624 151.85V190.44C127.624 197.064 132.974 202.433 139.574 202.433H248.061C254.66 202.433 260.011 197.064 260.011 190.44V151.85C260.011 145.226 254.66 139.856 248.061 139.856Z" fill="#CC8373"/>
<path d="M141.941 168.608C143.376 164.577 145.99 161.074 149.443 158.56C152.895 156.045 157.024 154.636 161.288 154.517C165.552 154.398 169.753 155.575 173.339 157.893C176.925 160.212 179.73 163.563 181.385 167.509" stroke="#2F2325" stroke-width="8.99623" stroke-linecap="round" stroke-linejoin="round"/>
<path d="M207.374 168.608C208.809 164.577 211.424 161.074 214.876 158.56C218.329 156.045 222.458 154.636 226.722 154.517C230.986 154.398 235.186 155.575 238.772 157.893C242.358 160.212 245.163 163.563 246.819 167.509" stroke="#2F2325" stroke-width="8.99623" stroke-linecap="round" stroke-linejoin="round"/>
<path d="M183.46 183.109C183.826 186.016 185.237 188.69 187.428 190.628C189.619 192.565 192.438 193.635 195.359 193.635C198.279 193.635 201.098 192.565 203.289 190.628C205.48 188.69 206.891 186.016 207.258 183.109H183.46Z" fill="#ECD6C4" stroke="#2F2325" stroke-width="1.79925" stroke-linecap="round" stroke-linejoin="round"/>
<path d="M195.22 127.496C201.875 127.498 208.424 125.827 214.271 122.636C220.117 119.445 225.074 114.835 228.689 109.228L236.929 96.4279C223.872 89.1913 209.179 85.4507 194.265 85.5663C179.35 85.6818 164.716 89.6497 151.773 97.0877L164.176 112.541C167.907 117.205 172.633 120.969 178.005 123.558C183.378 126.146 189.261 127.492 195.22 127.496Z" fill="#CC8373"/>
<path d="M253.222 248.37C234.625 244.162 194.362 242.652 194.362 242.652C184.662 242.96 157.665 244.118 139.067 248.385C135.547 249.188 132.483 251.351 130.541 254.406C128.6 257.461 127.936 261.161 128.695 264.704L145.919 345.579C146.765 349.5 148.922 353.014 152.03 355.536C155.139 358.059 159.014 359.44 163.012 359.449H229.409C233.407 359.44 237.282 358.059 240.391 355.536C243.499 353.014 245.656 349.5 246.502 345.579L263.711 264.704C264.467 261.143 263.788 257.426 261.823 254.366C259.858 251.306 256.766 249.15 253.222 248.37Z" fill="#ECD6C4"/>
<path d="M244.749 246.816C224.574 243.796 194.406 242.652 194.406 242.652C179.635 243.077 164.898 244.3 150.258 246.318L169.776 359.449H222.821L244.749 246.816Z" fill="#CC8373"/>
<path d="M211.82 267.24H179.505C172.905 267.24 167.555 272.61 167.555 279.234V295.069C167.555 301.693 172.905 307.062 179.505 307.062H211.82C218.42 307.062 223.77 301.693 223.77 295.069V279.234C223.77 272.61 218.42 267.24 211.82 267.24Z" fill="#ECD6C4"/>
<path d="M186.225 283.647H177.124V292.781H186.225V283.647Z" fill="#ECD6C4" stroke="#2F2325" stroke-width="0.8" stroke-linecap="round" stroke-linejoin="round"/>
<path d="M200.206 283.647H191.104V292.781H200.206V283.647Z" fill="#ECD6C4" stroke="#2F2325" stroke-width="0.8" stroke-linecap="round" stroke-linejoin="round"/>
<path d="M214.201 283.647H205.1V292.781H214.201V283.647Z" fill="#ECD6C4" stroke="#2F2325" stroke-width="0.8" stroke-linecap="round" stroke-linejoin="round"/>
<defs>
<filter id="filter0_f_6_4" x="215.007" y="137.855" width="67.663" height="63.4444" filterUnits="userSpaceOnUse" color-interpolation-filters="sRGB">
<feFlood flood-opacity="0" result="BackgroundImageFix"/>
<feBlend mode="normal" in="SourceGraphic" in2="BackgroundImageFix" result="shape"/>
<feGaussianBlur stdDeviation="4.49811" result="effect1_foregroundBlur_6_4"/>
</filter>
<filter id="filter1_f_6_4" x="106.901" y="137.855" width="67.663" height="63.4444" filterUnits="userSpaceOnUse" color-interpolation-filters="sRGB">
<feFlood flood-opacity="0" result="BackgroundImageFix"/>
<feBlend mode="normal" in="SourceGraphic" in2="BackgroundImageFix" result="shape"/>
<feGaussianBlur stdDeviation="4.49811" result="effect1_foregroundBlur_6_4"/>
</filter>
</defs>
</svg>
