<svg xmlns="http://www.w3.org/2000/svg" viewBox="0 0 32 32"><circle cx="15.5" cy="28" r=".5"/><circle cx="4" cy="15.5" r=".5"/><circle cx="16.5" cy="4" r=".5"/><path d="M30.5 1.5h-9c-.652 0-1.208.418-1.415 1H19V2a.5.5 0 0 0-.5-.5h-8C10.5.673 9.827 0 9 0c-.386 0-.734.15-1 .39C7.734.15 7.386 0 7 0s-.734.15-1 .39C5.734.15 5.386 0 5 0s-.734.15-1 .39A1.487 1.487 0 0 0 3 0c-.827 0-1.5.673-1.5 1.5v9c0 .652.418 1.208 1 1.414V13H2a.5.5 0 0 0-.5.5v8c-.827 0-1.5.673-1.5 1.5 0 .386.15.734.39 1-.24.266-.39.614-.39 1s.15.734.39 1c-.24.266-.39.614-.39 1s.15.734.39 1c-.24.266-.39.614-.39 1 0 .827.673 1.5 1.5 1.5h9c.652 0 1.208-.418 1.415-1H13v.5a.5.5 0 0 0 .5.5h8c0 .827.673 1.5 1.5 1.5.386 0 .734-.15 1-.39.266.24.614.39 1 .39s.734-.15 1-.39c.266.24.614.39 1 .39s.734-.15 1-.39c.266.24.614.39 1 .39.827 0 1.5-.673 1.5-1.5v-9c0-.652-.418-1.208-1-1.414V19h.5a.5.5 0 0 0 .5-.5v-8c.827 0 1.5-.673 1.5-1.5 0-.386-.15-.734-.39-1 .24-.266.39-.614.39-1s-.15-.734-.39-1c.24-.266.39-.614.39-1s-.15-.734-.39-1c.24-.266.39-.614.39-1 0-.827-.673-1.5-1.5-1.5zm-10 13v4a.5.5 0 0 0 .5.5h.5V19.691l-1.618.809H13.5a.5.5 0 0 0-.5.5v.5H12.309l-.809-1.618V13.5a.5.5 0 0 0-.5-.5h-.5V12.309l1.618-.809H18.5a.5.5 0 0 0 .5-.5v-.5H19.691l.809 1.618V14.5zM18 3v7.5h-3v-8h3V3zm-4-.5v8h-1.5v-5A.5.5 0 0 0 12 5h-.27a2.49 2.49 0 0 0-1.23.317V2.5H14zM3 11a.5.5 0 0 1-.5-.5v-9a.5.5 0 0 1 1 0v2a.5.5 0 0 0 1 0v-2a.5.5 0 0 1 1 0v2a.5.5 0 0 0 1 0v-2a.5.5 0 0 1 1 0v2a.5.5 0 0 0 1 0v-2a.5.5 0 0 1 1 0v8a.5.5 0 0 0 1 0V7c0-.64.498-.922 1-.985v4.677l-1.724.861A.5.5 0 0 0 9.5 12v1h-6v-1.5A.5.5 0 0 0 3 11zm0 3h7.5v3h-8v-3H3zm-.5 4h8v1.5h-5a.5.5 0 0 0-.5.5v.27c0 .475.124.884.317 1.23H2.5V18zm9 10.5a.5.5 0 0 0-.5.5.5.5 0 0 1-.5.5h-9a.5.5 0 0 1 0-1h2a.5.5 0 0 0 0-1h-2a.5.5 0 0 1 0-1h2a.5.5 0 0 0 0-1h-2a.5.5 0 0 1 0-1h2a.5.5 0 0 0 0-1h-2a.5.5 0 0 1 0-1h8a.5.5 0 0 0 0-1H7c-.64 0-.922-.498-.985-1h4.676l.862 1.724A.5.5 0 0 0 12 22.5h1v6h-1.5zm2.5.5v-7.5h3v8h-3V29zm4 .5v-8h1.5v5a.5.5 0 0 0 .5.5h.27a2.49 2.49 0 0 0 1.23-.317V29.5H18zM29 21a.5.5 0 0 1 .5.5v9a.5.5 0 0 1-1 0v-2a.5.5 0 0 0-1 0v2a.5.5 0 0 1-1 0v-2a.5.5 0 0 0-1 0v2a.5.5 0 0 1-1 0v-2a.5.5 0 0 0-1 0v2a.5.5 0 0 1-1 0v-8a.5.5 0 0 0-1 0V25c0 .64-.498.922-1 .985v-4.677l1.724-.861A.5.5 0 0 0 22.5 20v-1h6v1.5a.5.5 0 0 0 .5.5zm0-3h-7.5v-3h8v3H29zm.5-4h-8v-1.5h5a.5.5 0 0 0 .5-.5v-.27a2.49 2.49 0 0 0-.317-1.23H29.5V14zm-1-9.5h2a.5.5 0 0 1 0 1h-2a.5.5 0 0 0 0 1h2a.5.5 0 0 1 0 1h-2a.5.5 0 0 0 0 1h2a.5.5 0 0 1 0 1h-8a.5.5 0 0 0 0 1H25c.64 0 .922.498.985 1h-4.676l-.862-1.724A.5.5 0 0 0 20 9.5h-1v-6h1.5A.5.5 0 0 0 21 3a.5.5 0 0 1 .5-.5h9a.5.5 0 0 1 0 1h-2a.5.5 0 0 0 0 1z"/><circle cx="28" cy="16.5" r=".5"/></svg>