<svg xmlns="http://www.w3.org/2000/svg" data-name="Layer 1" viewBox="0 0 168 168"><path fill="#2d4356" d="M46.61475 69.42676a15.85632 15.85632 0 0 1-2.14838.53021c-2.10114.419-4.48193.89551-5.208 2.92682-.71094 1.99408.80316 3.86127 2.13916 5.50879A15.39951 15.39951 0 0 1 42.754 80.23541 15.81214 15.81214 0 0 1 40.92535 81.457c-1.8399 1.1153-3.92529 2.37891-3.92529 4.543s2.08539 3.42767 3.92529 4.543A15.81223 15.81223 0 0 1 42.754 91.76459a15.52519 15.52519 0 0 1-1.35645 1.84381c-1.336 1.64838-2.8501 3.5166-2.13818 5.50977.72461 2.03021 3.10638 2.50684 5.20752 2.92572a15.87124 15.87124 0 0 1 2.14746.53027 15.77 15.77 0 0 1-.64746 2.17584c-.70172 2.01556-1.49713 4.2998-.14453 5.94238a3.97231 3.97231 0 0 0 3.15485 1.249h.00916a18.41163 18.41163 0 0 0 2.70514-.28223 15.768 15.768 0 0 1 2.09668-.23541c.041 0 .07861 0 .1123.001a16.06216 16.06216 0 0 1 .123 2.24506c.02148 2.14362.04639 4.57422 1.88818 5.66315a3.19286 3.19286 0 0 0 1.648.43359 9.24694 9.24694 0 0 0 4.18011-1.54395 16.0516 16.0516 0 0 1 2.00641-.99316 16.25128 16.25128 0 0 1 .87262 2.03809c.76215 2.01849 1.62537 4.3056 3.74847 4.68549A3.03109 3.03109 0 0 0 68.89941 124h.001c1.83636 0 3.19769-1.57623 4.51459-3.09961a15.24409 15.24409 0 0 1 1.58453-1.666 15.21591 15.21591 0 0 1 1.58447 1.667C77.90045 122.4248 79.26276 124 81.09967 124a3.01308 3.01308 0 0 0 .53125-.04694c2.125-.37988 2.98822-2.66791 3.75092-4.68646a16.0731 16.0731 0 0 1 .87109-2.03522 15.75986 15.75986 0 0 1 2.00781.99219 9.24168 9.24168 0 0 0 4.17877 1.543A3.19262 3.19262 0 0 0 94.088 119.332c1.84082-1.08691 1.86621-3.51849 1.8877-5.664a16.05172 16.05172 0 0 1 .123-2.24316c.03424-.001.07129-.001.1123-.001a15.78271 15.78271 0 0 1 2.09772.23541 18.404 18.404 0 0 0 2.7041.28223 3.97613 3.97613 0 0 0 3.16309-1.248c1.35449-1.64355.55859-3.9278-.14362-5.94336a15.76083 15.76083 0 0 1-.6474-2.17584 15.8821 15.8821 0 0 1 2.14844-.53027c2.10059-.41888 4.48236-.89551 5.208-2.92572.71088-1.99316-.80273-3.86139-2.13873-5.50977a15.52433 15.52433 0 0 1-1.35638-1.84381 15.815 15.815 0 0 1 1.82806-1.2207c1.8399-1.11621 3.92584-2.37982 3.92584-4.54388s-2.08594-3.42773-3.92584-4.54395a15.93 15.93 0 0 1-1.8291-1.22064 15.53747 15.53747 0 0 1 1.35651-1.84186c1.33594-1.64746 2.85052-3.51569 2.13861-5.51178-.72461-2.0293-3.10638-2.5058-5.207-2.9248a15.855 15.855 0 0 1-2.14844-.53021 15.74362 15.74362 0 0 1 .6474-2.17474c.70319-2.0166 1.49915-4.30286.14459-5.94342a3.98 3.98 0 0 0-3.1651-1.249 18.40568 18.40568 0 0 0-2.7041.28223 15.91019 15.91019 0 0 1-2.0957.23529c-.041 0-.079-.00092-.11328-.00189a16.069 16.069 0 0 1-.122-2.24323c-.02246-2.14349-.04687-4.57318-1.88867-5.664a3.19676 3.19676 0 0 0-1.64648-.43359 9.26091 9.26091 0 0 0-4.18073 1.54291 15.86273 15.86273 0 0 1-2.00781.99323 16.08424 16.08424 0 0 1-.87109-2.03613c-.7627-2.01959-1.62592-4.30762-3.75092-4.6875A3.02122 3.02122 0 0 0 81.09967 48c-1.83691 0-3.19824 1.5752-4.51562 3.09961a15.21591 15.21591 0 0 1-1.58447 1.667 15.17007 15.17007 0 0 1-1.58453-1.667C72.09814 49.57617 70.73633 48 68.89893 48a3.02465 3.02465 0 0 0-.53119.04688c-2.1236.37988-2.98682 2.667-3.749 4.68549a16.09664 16.09664 0 0 1-.87164 2.03711 15.57249 15.57249 0 0 1-2.0083-.99219 9.25951 9.25951 0 0 0-4.17969-1.54291 3.2027 3.2027 0 0 0-1.65039.43549c-1.83893 1.08893-1.86383 3.51862-1.88531 5.66315a16.04116 16.04116 0 0 1-.1225 2.24219c-.03369.001-.07129.00189-.11279.00189a15.932 15.932 0 0 1-2.09668-.23529 18.40568 18.40568 0 0 0-2.7041-.28223 3.97847 3.97847 0 0 0-3.16455 1.249c-1.35205 1.6416-.55719 3.92578.144 5.94141A15.77654 15.77654 0 0 1 46.61475 69.42676zm3.12988-3.49127c-.18451-.53021-.45648-1.31152-.58691-1.872a18.47394 18.47394 0 0 1 1.92773.23138 18.388 18.388 0 0 0 2.7027.28223 4.11037 4.11037 0 0 0 2.78949-.87012c1.40381-1.2041 1.42529-3.30371 1.4458-5.334.00543-.56342.01373-1.39062.08063-1.96582.52148.22174 1.22406.60944 1.70355.87415a9.454 9.454 0 0 0 4.20856 1.5517 3.34777 3.34777 0 0 0 1.16895-.20312c1.72461-.63971 2.4624-2.59473 3.17621-4.48437.19922-.52832.49121-1.30273.7525-1.82135.40723.38776.9223.9834 1.27441 1.39063 1.3418 1.5528 2.729 3.1582 4.61078 3.1582 1.88281 0 3.27051-1.60541 4.6123-3.1582.35162-.4082.86719-1.00391 1.27441-1.3916.2608.51959.55377 1.295.753 1.8233.71381 1.88959 1.45111 3.84369 3.17383 4.4834a3.3529 3.3529 0 0 0 1.16986.20313 9.45788 9.45788 0 0 0 4.209-1.5517c.48047-.26471 1.18457-.65344 1.7041-.875.06635.57507.0752 1.40326.08105 1.96576.02051 2.03119.042 4.1308 1.4472 5.33691a4.112 4.112 0 0 0 2.78809.8681 18.35418 18.35418 0 0 0 2.70123-.28223 18.54094 18.54094 0 0 1 1.92969-.23138c-.13092.56049-.4024 1.3418-.58789 1.873-.66992 1.924-1.3623 3.91315-.4444 5.5274.91309 1.61133 2.96 2.01953 4.93848 2.415.55475.11127 1.374.27435 1.92291.44916-.31061.4776-.82721 1.11334-1.17682 1.5459-1.28607 1.586-2.61615 3.22662-2.30078 5.07135.31158 1.81348 2.08789 2.89056 3.8067 3.9317A19.51519 19.51519 0 0 1 108.71582 86a19.54294 19.54294 0 0 1-1.71478 1.123c-1.71881 1.04108-3.49512 2.11823-3.8067 3.9317-.31537 1.84473 1.01373 3.48529 2.30078 5.07233.34961.43158.8653 1.0683 1.17584 1.54675-.54883.17389-1.36719.33691-1.92194.4483-1.97845.39551-4.02539.80371-4.9375 2.41309-.91888 1.61713-.2265 3.60645.44342 5.53021.18457.53033.457 1.31165.58789 1.87213a18.54873 18.54873 0 0 1-1.92871-.23242 18.39741 18.39741 0 0 0-2.70319-.28131 4.1096 4.1096 0 0 0-2.789.8692c-1.40332 1.2041-1.4248 3.30371-1.44531 5.334-.00586.56335-.01471 1.39154-.08209 1.9668-.52051-.22174-1.2226-.60944-1.70209-.87311a9.44616 9.44616 0 0 0-4.209-1.55273 3.36173 3.36173 0 0 0-1.17194.20313c-1.72168.64056-2.459 2.59369-3.17187 4.48236-.20013.52832-.4931 1.30475-.75391 1.82422-.40723-.3877-.92279-.98431-1.27527-1.3916-1.34186-1.55267-2.72864-3.1582-4.61145-3.1582-1.88177 0-3.269 1.60553-4.61029 3.15729-.3526.40723-.86768 1.00391-1.2749 1.3916-.26129-.51959-.55371-1.29395-.753-1.82129-.71332-1.88971-1.45062-3.84381-3.17377-4.48437a3.36073 3.36073 0 0 0-1.17145-.20312 9.44641 9.44641 0 0 0-4.20746 1.5517c-.48053.26575-1.18512.65332-1.7041.876-.06689-.5752-.0752-1.40332-.08112-1.9668-.02051-2.03125-.04187-4.13184-1.4472-5.33691a4.10623 4.10623 0 0 0-2.7876-.86823 18.39783 18.39783 0 0 0-2.7027.28131 18.51564 18.51564 0 0 1-1.92871.23242c.13092-.56049.40289-1.3418.5874-1.87213.67-1.92377 1.3623-3.91211.4444-5.52826-.91309-1.61133-2.95947-2.01953-4.938-2.415-.55469-.11139-1.37311-.27441-1.92187-.4483.31055-.47845.82617-1.11517 1.17676-1.54675 1.28613-1.587 2.61621-3.22864 2.29932-5.07135C46.49463 89.24219 44.71783 88.165 42.999 87.123A19.69358 19.69358 0 0 1 41.28424 86 19.67948 19.67948 0 0 1 42.999 84.877c1.71881-1.04205 3.49561-2.1192 3.80524-3.93073.31738-1.8457-1.01318-3.48633-2.2998-5.0733-.3501-.43158-.86621-1.06732-1.17633-1.5459.549-.17383 1.36725-.33691 1.92194-.44818 1.979-.39551 4.02539-.80371 4.9375-2.41315C51.10645 69.84857 50.41412 67.85938 49.74463 65.93549zM68.60895 33.72357l-.47363 2.70123a3.15117 3.15117 0 0 0 .59766 2.625 2.962 2.962 0 0 0 3.7207.52435l2.54639-1.3056 2.54388 1.3056A3.58277 3.58277 0 0 0 79.18262 40a2.66974 2.66974 0 0 0 2.083-.9502 3.15052 3.15052 0 0 0 .60065-2.623l-.47565-2.7041 2.01575-1.91895a2.84046 2.84046 0 0 0-1.64362-5.08594l-2.83112-.40137-1.25677-2.49323a2.87151 2.87151 0 0 0-5.34814.00391l-1.25787 2.48932-2.83148.40137a3.00249 3.00249 0 0 0-2.61383 1.98138 2.971 2.971 0 0 0 .96338 3.09875zm5.08887-3.7392l1.30322-2.5791 1.2998 2.5791 2.79883.39648-2.01953 1.92383.4892 2.78607-2.56726-1.3183-2.57184 1.3183.4892-2.787-2.02-1.92285zM17.95367 93.78217l2.54688-1.3056 2.543 1.3056a3.58541 3.58541 0 0 0 1.63861.42584 2.67093 2.67093 0 0 0 2.0835-.9502 3.1522 3.1522 0 0 0 .60065-2.623l-.47565-2.7041 2.0152-1.919a2.84018 2.84018 0 0 0-1.64258-5.08588l-2.8316-.40137-1.25677-2.4931a2.87146 2.87146 0 0 0-5.34814.00385l-1.25787 2.48926-2.83148.40137a3.00182 3.00182 0 0 0-2.61383 1.98138 2.97074 2.97074 0 0 0 .96344 3.09869l2.022 1.92572-.47363 2.70123a3.15117 3.15117 0 0 0 .59766 2.625A2.96324 2.96324 0 0 0 17.95367 93.78217zm1.24414-9.58978l1.30322-2.5791 1.2998 2.5791 2.79883.39648L22.58014 86.5127l.48969 2.78607-2.5683-1.3183-2.57129 1.3183.4892-2.78711-2.02-1.92279zM120.123 82.90717a2.97283 2.97283 0 0 0 .96387 3.09869l2.02155 1.92572-.47272 2.7002a3.15125 3.15125 0 0 0 .59668 2.625 2.95681 2.95681 0 0 0 3.72174.52539l2.5459-1.3056 2.54388 1.3056a3.58124 3.58124 0 0 0 1.63867.42584 2.66993 2.66993 0 0 0 2.083-.9502 3.15052 3.15052 0 0 0 .60065-2.623l-.47565-2.7041 2.01575-1.919a2.84043 2.84043 0 0 0-1.64362-5.08588l-2.83112-.40137-1.25677-2.4931a2.87181 2.87181 0 0 0-5.34863.00385l-1.25781 2.48926-2.83209.40137A3.00378 3.00378 0 0 0 120.123 82.90717zm8.07428 1.28522l1.30371-2.5791 1.2998 2.5791 2.79883.39648-2.01953 1.92383.4892 2.78607-2.56726-1.3183-2.57233 1.3183.4892-2.78711-2.01953-1.92279zM122.165 119.91888a2.938 2.938 0 0 0-2.7724-1.54291l-2.9082.06934-1.57422-2.24414a3.0341 3.0341 0 0 0-2.5108-1.4444 2.95758 2.95758 0 0 0-2.77045 2.26959L108.751 119.751l-2.72168.875a3.028 3.028 0 0 0-2.24121 2.37988 2.985 2.985 0 0 0 1.4101 2.90234l2.24908 1.57617-.06836 2.7832a3.1508 3.1508 0 0 0 .83295 2.37793 2.62033 2.62033 0 0 0 1.89655.79486 3.38952 3.38952 0 0 0 2.02728-.74017l2.28619-1.71783 2.65332.874a2.99473 2.99473 0 0 0 3.45306-.92383 3.06556 3.06556 0 0 0 .3252-2.86029l-.87109-2.65039 1.71783-2.28522A3.01548 3.01548 0 0 0 122.165 119.91888zm-6.63367 4.76862l.90125 2.74609-2.7431-.9043-2.25977 1.69727.0683-2.787-2.31732-1.625 2.748-.88385.88666-2.751 1.625 2.31641 2.78809-.06738zM27.41656 48.126L29.665 49.70209l-.06732 2.78229a3.15137 3.15137 0 0 0 .83154 2.37891 2.61876 2.61876 0 0 0 1.897.7959 3.39475 3.39475 0 0 0 2.02832-.7403l2.28607-1.71869 2.65094.874a2.99628 2.99628 0 0 0 3.45508-.92279 3.06926 3.06926 0 0 0 .32471-2.8623l-.87061-2.6485 1.71918-2.28607a3.01516 3.01516 0 0 0 .4624-3.21783 2.93987 2.93987 0 0 0-2.77386-1.54285l-2.90582.07025-1.57471-2.24518a3.03376 3.03376 0 0 0-2.51019-1.44427 2.95872 2.95872 0 0 0-2.771 2.27045l-.8775 2.72461-2.72021.875a3.02314 3.02314 0 0 0-2.24268 2.378A2.98462 2.98462 0 0 0 27.41656 48.126zm6.73138-2.97656l.88629-2.75 1.62451 2.31537 2.78857-.06732-1.69879 2.25885.90192 2.74506-2.74219-.9043-2.26031 1.69824.06787-2.78815L31.4 46.0332zM46.21393 123.00879a3.02247 3.02247 0 0 0-2.2403-2.37988L41.249 119.751l-.87549-2.72168a2.95744 2.95744 0 0 0-2.77289-2.27051 3.03333 3.03333 0 0 0-2.50879 1.43939l-1.57623 2.24908-2.78369-.06836-.123-.00189a2.93854 2.93854 0 0 0-2.773 1.54285 3.01135 3.01135 0 0 0 .46393 3.21582l1.71777 2.28619-.87451 2.65332a3.078 3.078 0 0 0 .33252 2.86328 2.99938 2.99938 0 0 0 3.45209.915l2.65039-.87109 2.28522 1.71783a3.39622 3.39622 0 0 0 2.02979.74121 2.61906 2.61906 0 0 0 1.89655-.7959 3.14439 3.14439 0 0 0 .83295-2.36914l-.06787-2.792 2.24408-1.57422A2.98423 2.98423 0 0 0 46.21393 123.00879zm-7.71 2.43158l.06738 2.78809-2.25879-1.69714-2.75.914.9082-2.7558-1.69733-2.25983 2.78711.0683 1.625-2.31732.88379 2.748 2.75049.88666zM107.79987 47.64056l-.874 2.65039a3.0783 3.0783 0 0 0 .331 2.86432 2.99385 2.99385 0 0 0 3.45319.916l2.64941-.87109 2.28711 1.7207a3.39981 3.39981 0 0 0 2.02728.73828 2.62144 2.62144 0 0 0 1.89648-.79492 3.145 3.145 0 0 0 .834-2.37018l-.06842-2.792 2.24518-1.57422a2.98374 2.98374 0 0 0 1.415-2.90039 3.02494 3.02494 0 0 0-2.24121-2.3808l-2.72461-.877-.875-2.72168a2.95607 2.95607 0 0 0-2.77252-2.27142A3.03619 3.03619 0 0 0 112.874 38.416l-1.57611 2.249-2.78229-.06732-.12689-.002a2.9365 2.9365 0 0 0-2.77148 1.543 3.01156 3.01156 0 0 0 .46387 3.21582zm5.543-2.9248l1.624-2.31635.88379 2.748 2.75.88672-2.31543 1.624.06732 2.78906-2.25867-1.6983-2.74915.91412.9082-2.75488-1.69818-2.25983zM160 2a3 3 0 1 0 3 3A3.00344 3.00344 0 0 0 160 2zm0 4.5A1.5 1.5 0 1 1 161.5 5 1.50148 1.50148 0 0 1 160 6.5zM69 8a3 3 0 1 0-3-3A3.00344 3.00344 0 0 0 69 8zm0-4.5A1.5 1.5 0 1 1 67.5 5 1.50148 1.50148 0 0 1 69 3.5zM158 30a2 2 0 1 0-2 2A2.00229 2.00229 0 0 0 158 30zm-3 0a1 1 0 1 1 1 1A1.001 1.001 0 0 1 155 30zM116 5a2 2 0 1 0-2-2A2.00229 2.00229 0 0 0 116 5zm0-3a1 1 0 1 1-1 1A1.001 1.001 0 0 1 116 2zM50 30a2 2 0 1 0-2-2A2.00229 2.00229 0 0 0 50 30zm0-3a1 1 0 1 1-1 1A1.001 1.001 0 0 1 50 27z"/><circle cx="2" cy="148" r="2" fill="#2d4356"/><path fill="#2d4356" d="M11 146H8a2 2 0 0 0 0 4h3a2 2 0 0 0 0-4zM160 146h-3a2 2 0 0 0 0 4h3a2 2 0 0 0 0-4z"/><circle cx="166" cy="148" r="2" fill="#2d4356"/><path fill="#2d4356" d="M150.72131,146H81.7912l-.40057-2.27734,2.01575-1.91895a2.84046,2.84046,0,0,0-1.64362-5.08594l-2.83112-.40137-1.25677-2.49323a2.87151,2.87151,0,0,0-5.34814.00391l-1.25787,2.48932-2.83148.40137a3.00249,3.00249,0,0,0-2.61383,1.98138,2.971,2.971,0,0,0,.96338,3.09875l2.022,1.92566L68.20978,146H17.27869a2.017,2.017,0,1,0,0,4H150.72131a2.017,2.017,0,1,0,0-4Zm-73.152-.90924-2.56726-1.3183-2.57184,1.3183.4892-2.787-2.02-1.92285,2.7984-.39648,1.30322-2.5791,1.2998,2.5791,2.79883.39648-2.01953,1.92383Z"/><path fill="#0bceb2" d="M64.24463,101.7793a15.0351,15.0351,0,0,0,5.5,2.69727l.0083.5791A3.99911,3.99911,0,0,0,73.75244,109h.05908l3.49713-.05182a4.00094,4.00094,0,0,0,3.94037-4.0556l-.00879-.62891a13.58953,13.58953,0,0,0,5.12213-2.83691,11.8001,11.8001,0,0,0-.292-17.3125c-.01373-.0108-.02734-.02246-.04-.03418a3.99865,3.99865,0,0,0,3.333-2.39648l.04388-.10162a4.00447,4.00447,0,0,0,.3291-1.57416A12.05044,12.05044,0,0,0,86.298,71.19818a12.89583,12.89583,0,0,0-5.11041-3.09662l-.01562-1.15729a4.00069,4.00069,0,0,0-4-3.94427h-.06146l-3.49811.05371a4.00021,4.00021,0,0,0-3.938,4.05267l.01276.97949a13.50817,13.50817,0,0,0-5.14551,2.92194,11.09487,11.09487,0,0,0-3.61475,8.54395,10.93711,10.93711,0,0,0,3.767,8.5224l-.69232.01172A3.99964,3.99964,0,0,0,60.54,90.19336l-.0639.11914a3.99906,3.99906,0,0,0-.47559,1.86426C59.96533,97.32318,62.28912,100.23926,64.24463,101.7793ZM64.06451,92.085l6.25244-.09869a4.35921,4.35921,0,0,0,1.42377,3.6192,5.50484,5.50484,0,0,0,3.4458,1.03021c.049,0,.09674,0,.14551-.00092a4.74319,4.74319,0,0,0,3.2207-1.00488,3.32847,3.32847,0,0,0,1.042-2.63281,3.45614,3.45614,0,0,0-1.06537-2.60449,10.53849,10.53849,0,0,0-3.70514-1.84772A21.20643,21.20643,0,0,1,67.40485,85.127,6.97492,6.97492,0,0,1,64.92633,79.5a7.07484,7.07484,0,0,1,2.32574-5.55084,11.00244,11.00244,0,0,1,6.478-2.626l-.05621-4.26947L77.17194,67l.06049,4.32617a10.10644,10.10644,0,0,1,6.24225,2.706,7.99824,7.99824,0,0,1,2.26166,5.961l-.04388.1015-6.27148.09674a4.702,4.702,0,0,0-1.13379-3.32422,3.92326,3.92326,0,0,0-2.9668-1.12012c-.03223,0-.06445.00092-.09674.00092a3.96108,3.96108,0,0,0-2.98138,1.02643,3.675,3.675,0,0,0-.88672,2.64648,3.19249,3.19249,0,0,0,1.01221,2.4375,12.16161,12.16161,0,0,0,3.77783,1.91406,19.82278,19.82278,0,0,1,7.35651,3.4082A7.141,7.141,0,0,1,85.999,92.85938a7.02327,7.02327,0,0,1-2.30951,5.5918,11.23053,11.23053,0,0,1-6.49518,2.56439l.05469,3.93262L73.75244,105l-.05463-3.92969a12.27246,12.27246,0,0,1-6.97858-2.43365,7.61345,7.61345,0,0,1-2.71869-6.43256Z"/><polygon fill="#0bceb2" points="9.583 23.011 11.07 21.056 10.131 20.524 9.177 22.714 9.145 22.714 8.175 20.539 7.22 21.087 8.691 22.996 8.691 23.027 6.391 22.73 6.391 23.794 8.707 23.497 8.707 23.528 7.22 25.436 8.112 26 9.13 23.794 9.16 23.794 10.099 25.984 11.085 25.421 9.583 23.543 9.583 23.512 11.945 23.794 11.945 22.73 9.583 23.042 9.583 23.011"/><polygon fill="#0bceb2" points="39.281 10.769 40.137 9.643 39.597 9.337 39.047 10.598 39.029 10.598 38.471 9.345 37.92 9.661 38.768 10.76 38.768 10.778 37.443 10.607 37.443 11.22 38.777 11.049 38.777 11.067 37.92 12.166 38.434 12.49 39.02 11.22 39.038 11.22 39.578 12.481 40.146 12.157 39.281 11.075 39.281 11.057 40.641 11.22 40.641 10.607 39.281 10.787 39.281 10.769"/><polygon fill="#0bceb2" points="139 24.713 139 23.67 136.683 23.977 136.683 23.946 138.142 22.028 137.221 21.506 136.285 23.654 136.253 23.654 135.302 21.521 134.365 22.059 135.808 23.931 135.808 23.962 133.552 23.67 133.552 24.713 135.823 24.422 135.823 24.453 134.365 26.325 135.24 26.878 136.238 24.713 136.268 24.713 137.189 26.862 138.156 26.31 136.683 24.468 136.683 24.437 139 24.713"/><polygon fill="#0bceb2" points="104.443 20.586 105.701 18.931 104.907 18.481 104.099 20.334 104.073 20.334 103.252 18.494 102.444 18.958 103.689 20.573 103.689 20.599 101.742 20.348 101.742 21.248 103.702 20.996 103.702 21.023 102.444 22.638 103.198 23.115 104.06 21.248 104.085 21.248 104.88 23.101 105.714 22.625 104.443 21.036 104.443 21.009 106.442 21.248 106.442 20.348 104.443 20.612 104.443 20.586"/><path fill="#0bceb2" d="M118.15387 155h-8.30774a2.00641 2.00641 0 0 0 0 4h8.30774a2.00641 2.00641 0 0 0 0-4zM58.15387 155H49.84613a2.00641 2.00641 0 0 0 0 4h8.30774a2.00641 2.00641 0 0 0 0-4zM104 155H64a2 2 0 0 0 0 4H79.94v2H72a2 2 0 0 0 0 4H97a2 2 0 0 0 0-4H88.06v-2H104a2 2 0 0 0 0-4z"/></svg>