<svg id="visual" viewBox="0 0 900 600" width="900" height="600" xmlns="http://www.w3.org/2000/svg" xmlns:xlink="http://www.w3.org/1999/xlink" version="1.1"><rect x="0" y="0" width="900" height="600" fill="#9900FF"></rect><path d="M0 338L129 338L129 374L257 374L257 279L386 279L386 279L514 279L514 361L643 361L643 250L771 250L771 268L900 268L900 273L900 601L900 601L771 601L771 601L643 601L643 601L514 601L514 601L386 601L386 601L257 601L257 601L129 601L129 601L0 601Z" fill="#9900ff"></path><path d="M0 396L129 396L129 441L257 441L257 402L386 402L386 411L514 411L514 370L643 370L643 431L771 431L771 441L900 441L900 412L900 601L900 601L771 601L771 601L643 601L643 601L514 601L514 601L386 601L386 601L257 601L257 601L129 601L129 601L0 601Z" fill="#7700c6"></path><path d="M0 485L129 485L129 521L257 521L257 475L386 475L386 505L514 505L514 518L643 518L643 494L771 494L771 541L900 541L900 461L900 601L900 601L771 601L771 601L643 601L643 601L514 601L514 601L386 601L386 601L257 601L257 601L129 601L129 601L0 601Z" fill="#560090"></path></svg>