<svg id="visual" viewBox="0 0 960 540" width="960" height="540" xmlns="http://www.w3.org/2000/svg" xmlns:xlink="http://www.w3.org/1999/xlink" version="1.1"><rect x="0" y="0" width="960" height="540" fill="#931C1C"></rect><path d="M0 321L137 336L274 389L411 324L549 370L686 401L823 315L960 363L960 541L823 541L686 541L549 541L411 541L274 541L137 541L0 541Z" fill="#871400"></path><path d="M0 380L137 373L274 417L411 420L549 397L686 365L823 420L960 409L960 541L823 541L686 541L549 541L411 541L274 541L137 541L0 541Z" fill="#a32d04"></path><path d="M0 408L137 395L274 430L411 445L549 414L686 414L823 423L960 409L960 541L823 541L686 541L549 541L411 541L274 541L137 541L0 541Z" fill="#be4407"></path><path d="M0 446L137 440L274 479L411 457L549 483L686 454L823 441L960 473L960 541L823 541L686 541L549 541L411 541L274 541L137 541L0 541Z" fill="#da5b09"></path><path d="M0 499L137 475L274 515L411 487L549 495L686 514L823 491L960 499L960 541L823 541L686 541L549 541L411 541L274 541L137 541L0 541Z" fill="#f5730a"></path></svg>