<svg xmlns="http://www.w3.org/2000/svg" xmlns:xlink="http://www.w3.org/1999/xlink" width="64" height="64"><defs><linearGradient id="b" x1="992.183" x2="1019.298" y1="516.081" y2="545.959" gradientTransform="translate(-2537.842 -349.337) scale(2.56309)" gradientUnits="userSpaceOnUse" xlink:href="#a"/><linearGradient id="a"><stop offset="0" stop-color="#ff1679"/><stop offset="1" stop-color="#ff770b"/></linearGradient></defs><g transform="translate(0 -972.362)"><rect width="80" height="80" y="972.362" fill="url(#b)" rx="16.907" ry="16.907"/><path style="line-height:normal;-inkscape-font-specification:Sans;text-indent:0;text-align:start;text-decoration-line:none;text-transform:none;block-progression:tb;marker:none" fill="#fff" d="m 10.4625,983.39302 a 0.50005,0.50005 0 0 0 -0.28125,0.1875 c -0.51613,0.6656 -1.17344,1.4781 -1.75,2.3125 l 0.8125,0.5625 c 0.24991,-0.3617 0.51216,-0.691 0.78125,-1.0312 l 0,26.81238 a 0.50606671,0.50606671 0 0 0 0,0.3438 l 0,19.1875 a 0.50005,0.50005 0 0 0 0,0.5 l 0,7.1563 -0.8125,-1.125 -0.8125,0.5937 1.65625,2.2813 a 0.50005,0.50005 0 0 0 0.78125,0 c 0.51613,-0.6656 1.17344,-1.4469 1.75,-2.2813 l -0.8125,-0.5625 c -0.23796,0.3444 -0.49526,0.6748 -0.75,1 l 0,-6.9688 0.125,0.5 0.96875,-0.25 -0.28125,-0.9687 -0.0625,0.031 c 0.27026,-0.3818 0.45937,-0.8549 0.625,-1.4063 0.3413,-1.1362 0.52826,-2.6359 0.625,-4.375 0.19349,-3.4782 0.0316,-7.9375 -0.125,-12.375 -0.008,-0.2145 -0.0238,-0.4108 -0.0312,-0.625 l 4.1875,0 c 0.0364,4.1156 0.0417,8.2474 0.34375,11.375 0.15371,1.592 0.3865,2.9126 0.75,3.9063 0.18175,0.4967 0.39018,0.8989 0.6875,1.2187 0.065,0.07 0.14344,0.1579 0.21875,0.2187 l -0.46875,0.125 0.28125,0.9688 0.96875,-0.25 -0.15625,-0.5312 c 0.10602,0.028 0.20129,0.031 0.3125,0.031 0.24351,0 0.47541,-0.044 0.6875,-0.1562 l 0.0937,0.375 0.96875,-0.2813 -0.25,-0.9063 c 0.14335,-0.2308 0.26301,-0.4976 0.375,-0.7812 0.3835,-0.9712 0.63045,-2.2635 0.8125,-3.8125 0.36411,-3.0981 0.44521,-7.1682 0.53125,-11.1875 0.002,-0.1074 -0.002,-0.2052 0,-0.3125 l 4.90625,0 c 0.12877,3.3956 0.24605,6.763 0.5625,9.3125 0.16169,1.3026 0.36,2.3669 0.6875,3.1875 0.16375,0.4103 0.36115,0.7611 0.625,1.0313 0.0504,0.052 0.0982,0.1107 0.15625,0.1562 l 0.25,0.875 0.96875,-0.25 -0.0937,-0.3438 c 0.29606,-0.063 0.57797,-0.2245 0.78125,-0.4374 0.0367,-0.039 0.0603,-0.084 0.0937,-0.125 l 0.1875,0.625 0.96875,-0.2813 -0.28125,-0.9375 -0.5625,0.1562 c 0.0711,-0.1405 0.12523,-0.3065 0.1875,-0.4687 0.31789,-0.828 0.51284,-1.9457 0.65625,-3.25 0.28324,-2.5759 0.35276,-5.9168 0.40625,-9.25 l 4,0 c 0.1209,2.7531 0.2247,5.4504 0.53125,7.5313 0.16272,1.1044 0.39517,2.0419 0.71875,2.75 0.16179,0.3539 0.33581,0.6413 0.59375,0.875 0.10806,0.098 0.24068,0.1817 0.375,0.25 l 0.125,0.4687 0.9375,-0.2813 -0.0312,-0.094 c 0.18189,-0.067 0.35361,-0.1898 0.5,-0.3125 0.12954,-0.1086 0.24023,-0.2091 0.34375,-0.3438 l 0.15625,0.5 0.96875,-0.2812 -0.28125,-0.9688 -0.5,0.1563 c 0.29204,-0.6465 0.47514,-1.484 0.625,-2.4375 0.31908,-2.0303 0.43818,-4.649 0.5625,-7.2812 0.009,-0.182 0.0225,-0.3497 0.0312,-0.5313 l 5,0 c 0.18282,1.7703 0.35135,3.4999 0.625,4.875 0.16616,0.8349 0.36819,1.5736 0.65625,2.125 0.28806,0.5514 0.75976,1 1.375,1 0.13487,0 0.25384,-0.025 0.375,-0.062 l 0.1875,0.6875 0.96875,-0.2813 -0.28125,-0.9374 -0.125,0.031 c 0.0831,-0.096 0.1511,-0.2024 0.21875,-0.3125 0.30159,-0.491 0.51705,-1.1134 0.6875,-1.8437 0.3409,-1.461 0.53125,-3.3438 0.71875,-5.2188 0.002,-0.021 -0.002,-0.041 0,-0.062 l 3.53125,0 c 0.12355,1.2885 0.254,2.5473 0.46875,3.5625 0.13441,0.6354 0.31156,1.188 0.5625,1.625 0.18821,0.3277 0.46292,0.6239 0.8125,0.75 l 0.15625,0.5312 0.96875,-0.2812 -0.0937,-0.3438 c 0.21494,-0.1251 0.38719,-0.3291 0.53125,-0.5312 0.27315,-0.3832 0.47195,-0.852 0.625,-1.4062 0.30166,-1.0926 0.47037,-2.4861 0.625,-3.9063 l 9.562501,0 a 0.50005,0.50005 0 1 0 0,-1 l -9.468751,0 c 0.1158,-1.1244 0.23547,-2.2416 0.40625,-3.125 0.10955,-0.5666 0.26053,-1.033 0.40625,-1.375 0.14572,-0.342 0.29643,-0.5232 0.375,-0.5625 a 0.50005,0.50005 0 0 0 0.0625,0 l 0.71875,0.1562 0.21875,-0.9687 -0.96875,-0.2187 -0.0312,0.094 a 0.50005,0.50005 0 0 0 -0.4375,0.062 c -0.42143,0.2107 -0.68283,0.5804 -0.875,1.0312 -0.19217,0.4511 -0.32049,0.9886 -0.4375,1.5938 -0.18929,0.9791 -0.31277,2.1478 -0.4375,3.3125 l -2.84375,0 c -0.002,-0.021 0.002,-0.042 0,-0.062 -0.15655,-1.6282 -0.31934,-3.2495 -0.65625,-4.5312 -0.16845,-0.6411 -0.37832,-1.1872 -0.6875,-1.625 -0.15459,-0.2191 -0.3659,-0.3907 -0.59375,-0.5313 l 0.1875,-0.9063 -0.96875,-0.25 -0.25,0.9688 c -0.45355,0.1029 -0.84426,0.4063 -1.09375,0.8125 -0.30159,0.491 -0.4858,1.1134 -0.65625,1.8437 -0.28288,1.2124 -0.46506,2.7335 -0.625,4.2813 l -3.59375,0 c -0.008,-0.075 -0.0232,-0.1438 -0.0312,-0.2187 -0.23417,-2.1775 -0.49977,-4.3856 -1,-6.0938 -0.25011,-0.8541 -0.54437,-1.5907 -0.96875,-2.1562 -0.20359,-0.2714 -0.46808,-0.4895 -0.75,-0.6563 l 0.1875,-0.7813 -0.96875,-0.2187 -0.15625,0.6875 c -0.021,0 -0.0413,8e-4 -0.0625,0 -0.73821,-0.026 -1.33358,0.4416 -1.71875,1.0938 -0.38517,0.652 -0.61892,1.5211 -0.8125,2.5312 -0.31316,1.6341 -0.449,3.7011 -0.5625,5.8125 l -3.78125,0 c -0.12589,-2.7858 -0.26504,-5.5819 -0.625,-7.8125 -0.18953,-1.1745 -0.42426,-2.1992 -0.78125,-3 -0.119,-0.2669 -0.25173,-0.4999 -0.40625,-0.7188 l 0.125,-0.62491 -0.96875,-0.2187 -0.0312,0.094 c -0.10374,-0.051 -0.19777,-0.1255 -0.3125,-0.1562 -0.2226,-0.06 -0.44118,-0.023 -0.65625,0.031 l 0.0312,-0.1874 -1,-0.2188 -0.21875,0.96881 0.3125,0.062 c -0.10143,0.1392 -0.20345,0.2737 -0.28125,0.4375 -0.35283,0.7426 -0.56207,1.762 -0.71875,3 -0.28641,2.2627 -0.32615,5.2697 -0.375,8.3437 l -3.65625,0 c -0.12593,-3.2269 -0.27666,-6.4574 -0.6875,-9.0313 -0.22153,-1.3877 -0.52222,-2.5954 -0.9375,-3.53113 -0.13873,-0.3126 -0.29175,-0.5902 -0.46875,-0.8438 l 0.21875,-0.9687 -0.96875,-0.2187 -0.0937,0.4062 c -0.15959,-0.095 -0.31601,-0.2007 -0.5,-0.25 -0.15997,-0.043 -0.31015,-0.043 -0.46875,-0.031 l 0.0937,-0.375 -0.96875,-0.2188 -0.25,0.9688 0.1875,0.062 c -0.25066,0.229 -0.46089,0.4973 -0.625,0.8438 -0.41027,0.8662 -0.653,2.06143 -0.84375,3.53113 -0.33991,2.619 -0.44991,6.0933 -0.53125,9.6563 l -4.1875,0 c -0.0427,-3.9289 -0.1511,-7.8202 -0.53125,-10.8125 -0.20275,-1.59583 -0.46227,-2.93803 -0.90625,-3.93743 -0.22199,-0.4997 -0.50002,-0.9064 -0.84375,-1.2187 -0.13457,-0.1224 -0.27841,-0.201 -0.4375,-0.2813 l 0.1875,-0.8126 -0.96875,-0.2188 -0.1875,0.8439 c -0.41354,0.04 -0.80651,0.2066 -1.09375,0.5 -0.3242,0.3311 -0.55979,0.7607 -0.75,1.2812 -0.38042,1.0411 -0.57068,2.4561 -0.6875,4.12493 -0.20386,2.9126 -0.1278,6.6792 0,10.5313 l -0.8125,0 0,-17.09373 0.375,0.094 0.21875,-0.9687 -0.59375,-0.125 0,-8.46877 0.8125,1.125 0.8125,-0.5938 -1.65625,-2.25 a 0.50005,0.50005 0 0 0 -0.53125,-0.2187 z m 2.125,10.74997 -0.21875,0.9688 0.96875,0.25 0.25,-1.0001 -1,-0.2187 z m 3.90625,0.9064 -0.21875,0.9687 0.96875,0.2187 0.21875,-0.9687 -0.96875,-0.2187 z m 1.9375,0.4374 -0.21875,0.9688 0.96875,0.25 0.25,-1 -1,-0.2188 z m 1.96875,0.4688 -0.21875,0.9688 0.96875,0.2187 0.21875,-0.9687 -0.96875,-0.2188 z m 1.9375,0.4375 -0.21875,0.9687 0.96875,0.2188 0.21875,-0.9688 -0.96875,-0.2187 z m -7.8125,0.031 c 0.22059,0 0.39708,0.071 0.59375,0.25 0.19667,0.1786 0.37724,0.4578 0.5625,0.875 0.37053,0.8339 0.67844,2.109 0.875,3.65611 0.36855,2.901 0.45941,6.7647 0.5,10.6875 l -4.21875,0 c -0.12711,-3.8582 -0.19868,-7.6303 0,-10.4687 0.11362,-1.62311 0.30587,-2.97041 0.625,-3.84371 0.15956,-0.4366 0.35395,-0.7252 0.53125,-0.9062 0.1773,-0.1811 0.32764,-0.25 0.53125,-0.25 z m 13.65625,1.3124 -0.21875,0.9688 0.96875,0.2188 0.25,-0.9688 -1,-0.2188 z m 1.96875,0.4376 -0.21875,0.9687 0.96875,0.25 0.21875,-1 -0.96875,-0.2187 z m -4.96875,0.25 c 0.0616,-0.01 0.12604,-0.025 0.21875,0 0.39889,0.1068 0.80138,0.5128 1.15625,1.3124 0.35487,0.79971 0.62972,1.94041 0.84375,3.28121 0.39546,2.4774 0.5601,5.6683 0.6875,8.875 l -4.84375,0 c 0.0778,-3.548 0.17237,-7.007 0.5,-9.5313 0.18453,-1.4216 0.46074,-2.54191 0.78125,-3.21861 0.16025,-0.3383 0.33426,-0.5621 0.46875,-0.6563 0.0672,-0.047 0.12593,-0.052 0.1875,-0.062 z m 6.90625,0.2187 -0.21875,0.9687 0.96875,0.2188 0.21875,-0.9688 -0.96875,-0.2187 z m 5.84375,1.3125 -0.21875,0.99991 0.96875,0.2188 0.21875,-0.9688 -0.96875,-0.24991 z m -2.6875,0.46871 c 0.0406,0 0.0858,-0.019 0.15625,0 0.308,0.082 0.64128,0.3981 0.9375,1.0624 0.29622,0.6645 0.53675,1.6222 0.71875,2.75 0.34289,2.125 0.47026,4.895 0.59375,7.6563 l -3.90625,0 c 0.0504,-3.0617 0.10081,-6.0525 0.375,-8.2187 0.15052,-1.1894 0.36331,-2.1366 0.625,-2.6876 0.13085,-0.2753 0.27825,-0.4643 0.375,-0.5312 0.0484,-0.034 0.0844,-0.027 0.125,-0.031 z m 4.65625,0 -0.25,0.9687 1,0.2187 0.21875,-0.9687 L 39.9,1000.424 Z m 1.9375,0.4374 -0.21875,0.9688 0.96875,0.2188 0.21875,-0.9688 -0.96875,-0.2188 z m 1.9375,0.4376 -0.21875,1 0.96875,0.2187 0.25,-0.9687 -1,-0.25 z m 3.90625,0.9062 -0.21875,0.9688 0.96875,0.2187 0.21875,-0.9687 -0.96875,-0.2188 z m 1.9375,0.4375 -0.21875,1 1,0.2187 0.21875,-0.9687 -1,-0.25 z m 1.96875,0.4687 -0.21875,0.9688 0.96875,0.2188 0.21875,-0.9688 -0.96875,-0.2188 z m -6.09375,0.3438 c 0.36358,0.013 0.66181,0.1845 0.96875,0.5938 0.30694,0.409 0.58152,1.0238 0.8125,1.8124 0.46196,1.5775 0.73584,3.7406 0.96875,5.9063 0.005,0.042 -0.004,0.083 0,0.125 l -4.8125,0 c 0.11016,-2.0818 0.23918,-4.101 0.53125,-5.625 0.18237,-0.9516 0.43782,-1.7432 0.71875,-2.2187 0.28093,-0.4757 0.48486,-0.6054 0.8125,-0.5938 z m 8.03125,0.094 -0.21875,0.9687 0.96875,0.2187 0.21875,-0.9687 -0.96875,-0.2187 z m 3.90625,0.9062 -0.21875,0.9688 0.96875,0.2187 0.21875,-0.9687 -0.96875,-0.2188 z m 1.9375,0.4375 -0.21875,0.9687 0.96875,0.2188 0.25,-0.9688 -1,-0.2187 z m 1.96875,0.4375 -0.21875,1 0.96875,0.2188 0.21875,-0.9688 -0.96875,-0.25 z m -5.8125,0.5625 c 0.19444,0 0.33848,0.071 0.53125,0.3437 0.19277,0.2731 0.37939,0.7346 0.53125,1.3126 0.30172,1.1479 0.46995,2.7328 0.625,4.3437 l -3.3125,0 c 0.15402,-1.49 0.30886,-2.9441 0.5625,-4.0313 0.15768,-0.6756 0.36018,-1.2332 0.5625,-1.5624 0.20232,-0.3295 0.33333,-0.4063 0.5,-0.4063 z m 9.6875,0.3437 -0.21875,0.9688 1,0.2188 0.21875,-0.9688 -1,-0.2188 z m 1.96875,0.4376 -0.21875,0.9687 0.9375,0.25 0.21875,-1 -0.9375,-0.2187 z m -56.15625,6.2187 0.84375,0 c 0.008,0.2239 0.0233,0.4321 0.0312,0.6563 0.15664,4.4387 0.31403,8.8832 0.125,12.2812 -0.0945,1.699 -0.26301,3.1593 -0.5625,4.1562 -0.12479,0.4155 -0.28181,0.7248 -0.4375,0.9688 l 0,-18.0625 z m 7.03125,0 4.15625,0 c -0.002,0.096 0.002,0.1851 0,0.2813 -0.0861,4.0199 -0.17707,8.0801 -0.53125,11.0937 -0.17709,1.5068 -0.42693,2.7757 -0.75,3.5937 -0.16153,0.4091 -0.33603,0.7063 -0.5,0.875 -0.16397,0.1688 -0.28193,0.2188 -0.4375,0.2188 -0.15247,0 -0.27827,-0.048 -0.4375,-0.2188 -0.15923,-0.1712 -0.31511,-0.4862 -0.46875,-0.9062 -0.30728,-0.8399 -0.53773,-2.1364 -0.6875,-3.6875 -0.29422,-3.0472 -0.30706,-7.1328 -0.34375,-11.25 z m 11.0625,0 3.59375,0 c -0.0537,3.3246 -0.13295,6.6706 -0.40625,9.1563 -0.13882,1.2624 -0.33458,2.2936 -0.59375,2.9687 -0.12958,0.3375 -0.2829,0.5896 -0.40625,0.7187 -0.12335,0.1294 -0.17785,0.1563 -0.28125,0.1563 -0.10567,0 -0.18733,-0.028 -0.3125,-0.1563 -0.12517,-0.128 -0.27287,-0.3534 -0.40625,-0.6874 -0.26675,-0.6685 -0.4684,-1.7072 -0.625,-2.9688 -0.30553,-2.4615 -0.43361,-5.7985 -0.5625,-9.1875 z m 9.59375,0 3.65625,0 c -0.008,0.1606 -0.0236,0.3079 -0.0312,0.4687 -0.12452,2.6366 -0.25905,5.2566 -0.5625,7.1876 -0.15172,0.9654 -0.35022,1.7552 -0.59375,2.25 -0.12177,0.2472 -0.23329,0.4386 -0.34375,0.5312 -0.11046,0.093 -0.19602,0.125 -0.3125,0.125 -0.10685,0 -0.16832,-0.023 -0.28125,-0.125 -0.11293,-0.1022 -0.24986,-0.3198 -0.375,-0.5938 -0.25028,-0.5475 -0.46909,-1.4104 -0.625,-2.4687 -0.29133,-1.9774 -0.40987,-4.6442 -0.53125,-7.375 z m 10.65625,0 3.40625,0 c -0.18534,1.8537 -0.3757,3.6949 -0.6875,5.0313 -0.15768,0.6756 -0.36018,1.2332 -0.5625,1.5624 -0.20232,0.3295 -0.33333,0.4063 -0.5,0.4063 -0.13476,0 -0.26237,-0.074 -0.46875,-0.4687 -0.20638,-0.3952 -0.40548,-1.0548 -0.5625,-1.8438 -0.25403,-1.2765 -0.44131,-2.9505 -0.625,-4.6875 z m 8.9375,0 2.625,0 c -0.14983,1.3646 -0.30273,2.6842 -0.5625,3.625 -0.13601,0.4926 -0.31026,0.8715 -0.46875,1.0937 -0.15849,0.2225 -0.24583,0.2813 -0.375,0.2813 -0.0958,0 -0.18648,-0.039 -0.34375,-0.3125 -0.15727,-0.2739 -0.3141,-0.7291 -0.4375,-1.3125 -0.19233,-0.9092 -0.31976,-2.1198 -0.4375,-3.375 z m 9.375,3.0625 -0.9375,0.2812 0.25,0.9688 0.96875,-0.2812 -0.28125,-0.9688 z m -1.90625,0.5625 -0.96875,0.25 0.28125,0.9687 0.9375,-0.2812 -0.25,-0.9375 z m -1.9375,0.5313 -0.96875,0.2812 0.28125,0.9375 0.96875,-0.25 -0.28125,-0.9687 z m -1.9375,0.5312 -0.9375,0.2812 0.25,0.9688 0.96875,-0.2812 -0.28125,-0.9688 z m -3.84375,1.0938 -0.96875,0.25 0.28125,0.9687 0.96875,-0.25 -0.28125,-0.9687 z m -1.90625,0.5312 -0.96875,0.2812 0.25,0.9688 0.96875,-0.2812 -0.25,-0.9688 z m -1.9375,0.5312 -0.96875,0.2813 0.28125,0.9687 0.96875,-0.2812 -0.28125,-0.9688 z m -3.84375,1.0938 -0.96875,0.2812 0.28125,0.9376 0.9375,-0.25 -0.25,-0.9688 z m -1.9375,0.5312 -0.96875,0.2813 0.28125,0.9687 0.96875,-0.2812 -0.28125,-0.9688 z m -1.90625,0.5626 -0.96875,0.25 0.25,0.9687 0.96875,-0.2813 -0.25,-0.9374 z m -1.9375,0.5312 -0.96875,0.25 0.28125,0.9688 0.96875,-0.25 -0.28125,-0.9688 z m -5.78125,1.625 -0.96875,0.25 0.28125,0.9688 0.96875,-0.25 -0.28125,-0.9688 z m -1.9375,0.5312 -0.9375,0.2813 0.25,0.9375 0.96875,-0.25 -0.28125,-0.9688 z m -1.90625,0.5313 -0.96875,0.2813 0.28125,0.9687 0.9375,-0.2813 -0.25,-0.9687 z m -5.78125,1.625 -0.96875,0.2813 0.28125,0.9687 0.96875,-0.2813 -0.28125,-0.9687 z m -1.9375,0.5626 -0.9375,0.25 0.25,0.9688 0.96875,-0.2813 -0.28125,-0.9375 z m -1.90625,0.5312 -0.96875,0.25 0.28125,0.9688 0.9375,-0.25 -0.25,-0.9688 z m -1.9375,0.5313 -0.96875,0.2813 0.28125,0.9687 0.96875,-0.2813 L 23.4,1028.393 Z m -5.78125,1.625 -0.96875,0.2813 0.28125,0.9374 0.96875,-0.25 -0.28125,-0.9687 z m -1.90625,0.5313 -0.96875,0.2812 0.25,0.9688 0.96875,-0.2813 -0.25,-0.9687 z m -1.9375,0.5624 -0.96875,0.25 0.28125,0.9688 0.96875,-0.2812 -0.28125,-0.9376 z" color="#000" font-family="Sans" font-weight="400" overflow="visible"/></g></svg>